{"glyphs":{"0":{"ha":1000,"x_min":0,"x_max":810,"o":"m 393 -8 q 338 -2 364 -8 q 159 112 235 24 q 42 331 83 200 q 0 611 0 461 q 32 865 0 736 q 129 1098 68 1004 q 265 1242 191 1193 q 414 1291 340 1291 q 598 1233 522 1286 q 721 1092 673 1179 q 789 895 768 1004 q 810 675 810 787 q 760 349 810 490 q 533 26 671 102 q 393 -8 463 -8 m 414 205 q 491 251 444 205 q 577 386 538 297 q 619 537 602 444 q 637 730 637 629 q 622 886 637 810 q 571 1019 606 962 q 475 1103 535 1076 q 440 1110 458 1110 q 340 1052 388 1110 q 261 889 292 994 q 230 646 230 784 q 298 313 230 446 q 339 249 318 273 q 379 215 360 225 q 414 205 399 205 z "},"1":{"ha":710,"x_min":0,"x_max":520,"o":"m 104 -18 q 51 -7 67 -18 q 21 20 31 4 q 12 54 12 36 q 44 113 12 85 q 127 139 56 120 q 162 150 161 149 q 176 481 172 152 q 180 790 178 687 l 184 1019 l 170 1006 q 115 960 136 976 q 70 945 93 945 q 42 951 56 945 q 2 999 10 964 q 0 1014 0 1006 q 30 1077 0 1042 q 142 1197 60 1112 q 235 1289 225 1282 q 274 1299 254 1299 q 327 1281 302 1299 q 362 1234 352 1264 q 367 1196 365 1225 q 374 892 370 1143 q 382 391 378 600 q 389 170 387 181 q 415 163 390 168 q 462 148 440 158 q 496 126 484 138 q 520 71 520 99 q 508 32 520 50 q 472 1 496 14 q 447 -8 459 -5 q 408 -11 434 -11 q 347 -9 387 -11 q 256 -5 296 -5 q 165 -13 210 -5 q 104 -18 129 -18 z "},"2":{"ha":1000,"x_min":0,"x_max":810,"o":"m 150 -22 q 96 -16 120 -22 q 0 98 0 14 q 19 163 0 136 q 96 238 38 190 q 428 624 317 425 q 538 990 538 823 q 536 1041 538 1025 q 528 1072 534 1058 q 474 1130 510 1109 q 391 1151 438 1151 q 340 1145 367 1151 q 182 996 203 1114 q 170 958 176 970 q 151 940 163 947 q 127 934 139 934 q 102 941 116 934 q 74 972 83 950 q 64 1025 64 994 q 96 1146 64 1079 q 232 1278 142 1233 q 416 1322 322 1322 l 434 1322 q 624 1254 547 1317 q 732 1084 702 1192 q 743 962 743 1034 q 734 847 743 901 q 440 271 686 560 l 393 214 l 548 214 q 650 213 614 214 q 706 210 687 212 q 739 201 726 207 q 810 97 806 170 q 785 31 810 62 q 723 -12 761 0 q 666 -17 706 -17 q 541 -14 629 -17 q 377 -10 435 -10 q 225 -18 296 -10 q 150 -22 177 -22 z "},"3":{"ha":951,"x_min":0,"x_max":762,"o":"m 283 -20 q 159 -1 218 -20 q 53 61 99 19 q 0 162 0 112 q 23 222 0 195 q 82 249 45 249 q 119 241 101 249 q 149 217 137 233 q 183 194 161 201 q 236 187 206 187 q 351 207 288 187 q 470 263 414 227 q 527 314 507 286 q 547 383 547 341 q 535 452 547 425 q 488 514 524 478 q 359 588 427 574 q 310 592 338 592 q 204 578 243 592 q 154 570 178 570 q 83 597 111 570 q 55 665 55 624 q 64 709 55 687 q 91 745 74 730 q 181 792 108 759 q 294 850 254 825 q 421 980 378 903 q 444 1058 444 1021 q 426 1099 444 1084 q 380 1120 408 1114 q 323 1126 352 1126 q 148 1063 213 1126 q 129 1043 134 1049 q 123 1028 123 1036 l 125 1014 q 107 979 125 992 q 67 966 89 966 q 20 989 39 966 q 1 1043 1 1012 q 74 1183 1 1106 q 202 1262 131 1237 q 351 1286 273 1286 q 448 1275 398 1286 q 541 1236 498 1263 q 610 1166 583 1210 q 636 1060 636 1123 q 608 923 636 996 q 532 791 580 850 q 501 753 501 755 q 524 739 501 751 q 623 669 573 713 q 703 581 673 625 q 762 383 762 490 q 719 218 762 291 q 607 92 676 145 q 452 9 537 39 q 283 -20 368 -20 z "},"4":{"ha":1076,"x_min":0,"x_max":886,"o":"m 766 -4 q 716 11 743 -4 q 677 45 690 26 q 662 72 667 59 q 655 111 656 85 q 653 194 653 137 l 655 537 l 499 513 q 265 460 423 499 q 114 427 136 427 q 61 441 87 428 q 18 479 35 454 q 0 545 0 505 q 7 589 0 570 q 66 685 15 606 q 155 828 115 756 q 269 1053 195 901 q 358 1224 340 1196 q 376 1246 369 1240 q 437 1268 404 1268 q 504 1240 476 1268 q 532 1168 532 1213 q 528 1136 532 1153 q 469 977 514 1086 q 377 774 424 869 q 352 720 352 724 q 357 719 352 719 q 435 732 370 719 l 535 750 q 658 772 651 770 q 663 920 660 780 q 682 1227 672 1179 q 708 1266 690 1251 q 748 1280 726 1280 q 786 1265 768 1280 q 811 1223 805 1249 q 840 938 824 1169 l 842 895 q 869 465 861 644 l 874 377 q 886 143 886 195 q 877 73 886 92 q 826 15 861 35 q 766 -4 791 -4 z "},"5":{"ha":920,"x_min":0,"x_max":730,"o":"m 273 -31 l 247 -30 q 134 -15 173 -25 q 75 13 94 -5 q 43 87 43 47 q 53 130 43 110 q 83 163 63 151 q 133 176 102 176 l 165 175 q 284 186 218 175 q 387 214 350 198 q 440 250 414 227 q 479 296 466 273 q 505 406 504 338 q 431 581 505 514 q 366 628 398 612 q 292 644 333 644 q 236 635 263 644 q 195 612 210 627 q 106 574 161 574 q 76 576 85 574 q 54 587 66 578 q 0 696 0 618 q 3 733 0 713 q 15 987 15 855 l 12 1095 q 11 1158 11 1126 q 14 1200 11 1187 q 22 1223 16 1213 q 37 1241 28 1234 q 60 1255 45 1248 q 82 1264 71 1261 q 117 1269 94 1267 q 187 1273 140 1271 q 356 1282 260 1276 q 534 1295 452 1288 l 559 1296 q 662 1264 625 1296 q 699 1189 699 1232 q 666 1116 699 1149 q 578 1073 633 1083 q 504 1068 564 1070 q 202 1062 429 1065 q 204 968 203 1008 q 207 880 206 927 q 210 854 207 861 q 227 848 212 848 q 254 850 237 848 q 307 853 279 853 q 593 730 460 853 q 696 577 663 664 q 730 394 730 491 q 675 184 730 278 q 528 34 621 90 q 321 -29 436 -22 l 273 -31 z "},"6":{"ha":884,"x_min":0,"x_max":694,"o":"m 359 -54 q 140 47 245 -54 q 36 219 72 118 q 0 436 0 320 q 33 659 0 545 q 395 1204 132 994 q 471 1258 442 1242 q 522 1275 500 1275 q 567 1258 547 1275 q 586 1213 586 1241 q 582 1191 586 1202 q 562 1162 577 1180 q 518 1112 547 1145 q 406 979 447 1034 q 309 804 355 908 q 279 729 279 739 q 293 726 279 726 l 329 728 q 422 713 370 728 q 519 672 473 699 q 653 528 611 619 q 694 323 694 436 q 617 71 694 171 q 403 -50 539 -29 q 359 -54 376 -54 m 373 177 q 399 182 380 177 q 498 317 479 200 q 503 375 503 348 q 402 544 503 500 q 326 562 362 562 q 269 549 290 562 q 222 511 248 536 l 223 479 q 230 368 224 411 q 262 271 237 325 q 302 214 279 239 q 373 177 337 177 z "},"7":{"ha":965,"x_min":0,"x_max":775,"o":"m 155 -54 q 124 -49 141 -54 q 89 -24 108 -43 q 65 12 71 -5 q 57 77 57 43 q 62 125 57 103 q 116 263 73 161 q 211 476 159 365 q 273 613 269 600 q 265 617 273 616 q 236 618 258 618 q 181 623 201 618 q 148 640 161 628 q 130 682 130 659 q 154 730 130 709 q 169 736 159 734 q 199 742 179 739 q 254 747 218 744 q 314 753 290 751 q 340 758 339 756 q 371 815 343 762 q 435 937 399 868 q 500 1058 471 1006 q 35 1118 110 1076 q 0 1181 0 1140 q 3 1203 0 1196 q 18 1221 6 1211 q 54 1244 34 1238 q 258 1251 77 1249 q 467 1257 389 1253 q 621 1268 545 1260 q 662 1271 644 1271 q 744 1239 713 1271 q 775 1162 775 1208 q 771 1135 775 1149 q 752 1094 766 1121 q 709 1017 737 1067 q 663 933 690 985 q 612 834 635 880 q 589 785 589 789 q 635 780 589 781 q 666 779 656 780 q 720 744 701 778 q 729 713 729 728 q 718 680 729 698 q 691 654 707 662 q 516 625 642 632 q 446 463 501 592 q 329 178 390 334 q 287 72 302 108 q 260 18 271 36 q 233 -15 249 1 q 155 -54 196 -54 z "},"8":{"ha":949,"x_min":0,"x_max":759,"o":"m 313 -43 q 170 -9 241 -43 q 60 72 99 24 q 14 156 28 111 q 0 266 0 201 q 42 488 1 378 q 157 684 83 598 l 182 714 l 163 750 q 123 859 139 795 q 108 972 108 922 q 193 1190 115 1099 q 397 1308 272 1280 q 450 1314 423 1314 q 603 1268 530 1314 q 717 1144 675 1223 q 759 975 759 1063 q 745 884 759 929 q 693 760 726 823 q 629 661 660 696 l 608 635 q 710 507 674 568 q 747 363 747 446 q 719 222 747 293 q 641 98 691 151 q 488 -4 578 34 q 313 -43 398 -43 m 453 736 l 465 751 q 503 804 490 784 q 545 964 543 876 l 546 984 q 508 1074 546 1034 q 429 1115 471 1115 q 347 1085 384 1111 q 294 1023 311 1060 q 285 968 285 1000 q 300 882 285 928 q 338 824 310 858 q 399 765 367 791 q 453 736 431 739 m 332 182 q 430 204 374 182 q 512 255 486 227 q 545 312 533 280 q 556 372 556 343 q 545 421 556 400 q 510 469 533 443 q 462 514 486 496 q 410 551 442 529 q 350 590 378 572 q 317 607 321 607 q 309 598 315 607 q 294 574 302 589 q 214 298 214 435 l 214 290 q 221 232 214 250 q 256 201 229 215 q 332 182 292 182 z "},"9":{"ha":902,"x_min":0,"x_max":712,"o":"m 157 -22 q 117 -9 134 -22 q 93 21 101 3 q 84 55 84 39 q 100 100 84 77 q 137 142 111 114 q 376 481 286 300 q 402 535 402 534 q 340 536 402 536 q 159 594 235 539 q 42 734 83 648 q 0 910 0 819 q 49 1104 0 1014 q 183 1249 98 1194 q 384 1306 269 1304 q 582 1238 496 1306 q 700 1061 667 1171 q 712 943 712 1009 q 698 789 712 859 q 494 296 636 515 q 345 105 422 189 q 214 -7 267 21 q 157 -22 184 -22 m 387 743 q 414 745 399 743 q 439 748 429 746 q 467 757 457 751 q 481 779 476 763 q 490 829 486 795 q 499 924 499 881 q 484 1014 499 981 q 441 1062 469 1048 q 377 1077 414 1077 q 348 1074 360 1077 q 319 1063 336 1072 q 282 1036 297 1053 q 252 985 267 1019 q 240 953 243 966 q 237 912 237 940 q 240 872 237 885 q 252 840 242 859 q 309 769 273 794 q 387 743 345 743 z "},"\u0000":{"ha":0,"x_min":0,"x_max":0,"o":""},"\u001d":{"ha":0,"x_min":0,"x_max":0,"o":""}," ":{"ha":471,"x_min":0,"x_max":0,"o":""}," ":{"ha":471,"x_min":0,"x_max":0,"o":""},"!":{"ha":458,"x_min":0,"x_max":356,"o":"m 172 -174 q 98 -129 125 -147 q 12 -17 37 -86 q 0 43 0 13 q 32 125 0 93 q 92 155 63 155 q 175 102 136 155 q 212 135 187 123 q 264 146 237 146 q 306 138 286 146 q 338 112 326 130 q 356 50 356 83 q 342 -14 356 16 q 270 -104 319 -58 q 172 -174 221 -150 m 170 186 q 140 191 154 186 q 64 264 81 212 q 58 412 58 294 q 63 707 58 535 q 77 1022 69 880 q 95 1211 85 1164 q 130 1275 105 1255 q 184 1295 155 1295 q 235 1276 212 1295 q 269 1225 258 1258 q 290 873 284 1161 q 294 558 294 709 q 285 269 294 296 q 238 207 269 228 q 170 186 206 186 z "},"\"":{"ha":482,"x_min":0,"x_max":380,"o":"m 304 920 q 263 932 283 920 q 231 1000 231 953 q 245 1167 231 1050 q 259 1227 250 1208 q 285 1258 267 1246 q 312 1266 298 1266 q 366 1229 343 1266 q 373 1196 370 1220 q 378 1115 376 1173 q 380 1021 380 1057 l 380 995 q 354 940 375 960 q 304 920 332 920 m 64 910 q 33 919 48 910 q 8 946 17 928 q 1 981 2 958 q 0 1055 0 1000 q 19 1239 0 1219 q 77 1270 46 1270 q 110 1261 94 1270 q 134 1233 125 1251 q 141 1147 141 1208 q 136 1031 141 1091 q 122 949 131 971 q 98 920 114 930 q 64 910 81 910 z "},"#":{"ha":1197,"x_min":0,"x_max":1095,"o":"m 692 58 q 648 68 670 58 q 618 87 628 77 q 599 118 608 98 q 589 161 589 138 q 621 281 589 202 q 635 329 635 321 q 349 337 610 332 l 334 275 q 306 170 317 205 q 277 112 294 134 q 237 79 259 90 q 192 68 215 68 q 120 97 151 68 q 84 178 88 125 q 117 296 84 218 q 133 344 133 336 q 84 350 133 348 q 32 358 47 353 q 9 380 17 364 q 0 406 0 393 q 8 431 0 418 q 25 450 16 444 q 53 458 34 456 q 110 462 73 460 q 182 464 146 463 q 205 524 194 497 q 254 658 252 646 q 240 664 254 663 q 180 667 227 666 q 88 675 106 671 q 61 693 71 680 q 51 720 51 706 q 56 741 51 730 q 72 756 60 751 q 111 765 83 762 q 193 768 139 767 l 294 770 l 316 829 q 371 967 352 924 q 407 1022 390 1010 q 448 1036 427 1036 q 478 1029 463 1036 q 502 1007 492 1022 q 512 968 512 992 q 477 801 512 921 q 471 774 471 779 q 473 772 471 772 q 505 769 479 769 l 618 769 l 781 770 l 798 818 q 848 960 830 918 q 919 1019 875 1019 q 964 998 944 1019 q 984 947 984 977 q 976 896 984 936 q 960 820 968 856 l 951 779 q 999 774 951 775 q 1057 767 1038 774 q 1086 742 1076 760 q 1095 708 1095 727 q 1086 672 1095 689 q 1056 648 1076 654 q 981 642 1036 642 l 917 642 q 869 447 872 465 q 880 444 869 444 q 908 445 892 444 q 955 447 923 446 q 976 445 968 447 q 993 437 983 443 q 1021 412 1011 427 q 1030 379 1030 396 q 997 322 1030 343 q 984 316 990 317 q 964 314 977 314 q 916 316 935 315 q 881 319 897 317 q 846 322 866 321 q 838 320 840 322 q 835 313 836 318 q 808 190 819 233 q 788 127 798 147 q 766 94 779 106 q 692 58 733 58 m 677 448 l 686 477 q 741 651 741 643 q 636 656 736 653 q 474 659 536 659 q 441 658 444 659 q 411 561 435 651 q 387 459 387 470 q 677 448 393 452 z "},"$":{"ha":898,"x_min":0,"x_max":796,"o":"m 399 -121 q 374 -114 387 -121 q 355 -92 361 -106 q 350 -48 350 -77 q 350 -22 350 -31 q 353 31 351 -13 l 331 33 q 160 97 241 47 q 48 210 79 148 q 32 278 32 245 q 43 325 32 306 q 71 353 54 344 q 104 362 87 362 q 146 348 125 362 q 182 306 167 334 q 239 255 200 275 q 321 235 279 235 l 351 235 l 353 320 q 357 476 357 451 q 355 505 357 503 l 290 517 q 111 572 174 537 q 19 666 47 608 q 6 696 10 684 q 1 722 2 708 q 0 760 0 736 q 35 892 0 829 q 323 1136 130 1076 l 357 1146 l 357 1215 q 361 1300 357 1275 q 378 1335 366 1326 q 402 1345 390 1345 q 428 1335 415 1345 q 435 1325 433 1329 q 437 1320 437 1322 q 438 1316 437 1318 l 441 1160 q 555 1142 512 1156 q 640 1086 597 1129 q 692 1009 671 1053 q 713 934 713 965 q 698 896 713 911 q 664 881 683 881 q 633 891 647 881 q 595 935 619 902 q 540 986 565 977 q 485 994 519 994 l 475 994 q 450 989 456 994 q 442 966 444 985 q 440 908 440 947 l 440 709 q 448 706 444 707 q 457 702 451 704 q 503 688 467 699 q 765 495 694 627 q 796 357 796 428 q 781 259 796 307 q 737 172 766 211 q 496 47 673 87 l 448 37 q 447 -71 448 -55 q 441 -94 446 -86 q 399 -121 427 -121 m 351 719 q 355 744 354 719 q 357 837 357 768 q 354 955 357 955 q 332 944 349 955 q 295 919 314 934 q 201 797 201 847 q 240 745 201 764 q 351 719 279 725 m 446 245 q 516 273 484 258 q 581 355 581 302 q 575 389 581 370 q 545 429 569 408 q 488 466 521 450 q 450 481 455 481 q 445 387 445 481 q 446 245 445 267 z "},"%":{"ha":770,"x_min":0,"x_max":668,"o":"m 490 -60 q 437 -44 462 -60 q 397 1 413 -29 q 385 70 385 31 q 434 252 385 177 q 555 328 484 328 q 634 294 601 328 q 668 194 668 260 q 650 91 668 148 q 582 -19 626 22 q 490 -60 537 -60 m 507 61 q 546 102 525 61 q 567 186 567 143 q 552 227 567 227 q 533 210 543 227 q 503 134 513 178 l 502 131 q 494 84 494 101 q 507 61 494 62 m 198 -53 q 170 -44 183 -53 q 148 -20 156 -36 q 139 15 139 -3 q 258 448 139 41 q 359 808 297 581 l 376 870 q 420 1028 402 959 q 439 1105 439 1097 l 439 1105 q 438 1106 439 1106 l 438 1106 q 348 1087 431 1106 q 290 1074 294 1074 q 286 1070 286 1074 q 289 1055 286 1066 q 294 1025 292 1044 q 297 985 297 1007 q 292 929 297 956 q 271 871 286 903 q 239 821 256 840 q 196 788 220 799 q 145 777 172 777 q 93 788 119 777 q 47 822 68 800 q 10 882 19 852 q 0 964 1 913 q 3 995 0 982 q 12 1026 5 1007 q 80 1142 36 1096 q 163 1189 123 1189 q 182 1187 172 1189 q 206 1185 193 1185 q 437 1233 283 1185 q 513 1251 496 1251 q 567 1216 551 1251 q 574 1192 574 1200 q 551 1079 574 1168 q 299 137 505 894 q 254 -18 264 2 q 198 -53 231 -53 m 146 903 q 165 930 152 903 q 176 958 174 945 q 178 994 178 970 q 177 1026 178 1015 q 170 1044 175 1037 q 161 1058 165 1051 q 125 958 125 1015 q 132 919 125 936 q 146 903 138 903 z "},"&":{"ha":981,"x_min":0,"x_max":880,"o":"m 224 -39 q 92 14 150 -39 q 11 159 34 66 q 0 277 0 211 q 6 364 0 326 q 65 538 22 446 q 165 699 109 631 l 184 722 q 132 864 149 805 q 115 987 115 922 q 150 1128 115 1069 q 242 1219 184 1187 q 367 1251 299 1251 q 522 1191 462 1251 q 583 1035 583 1130 q 427 736 583 898 l 386 693 l 395 676 q 447 600 408 653 q 526 496 486 547 q 586 431 578 431 q 598 443 591 431 q 620 483 605 454 q 642 522 633 508 q 658 543 650 536 q 677 555 666 550 q 706 562 692 562 q 743 544 728 562 q 759 497 759 526 q 739 424 759 463 q 680 321 724 394 l 694 306 q 814 182 754 240 q 872 122 865 134 q 880 98 880 110 q 862 58 880 76 q 819 39 844 39 q 802 42 812 39 q 591 207 758 54 l 582 195 q 509 119 560 168 q 224 -39 349 -39 m 310 854 q 369 922 343 890 q 410 984 395 954 q 425 1043 425 1013 q 412 1086 425 1075 q 368 1097 399 1097 q 286 1036 307 1097 q 281 996 281 1020 q 297 893 281 949 l 310 854 m 230 125 q 490 304 300 125 q 343 470 377 427 l 274 560 l 264 547 q 237 502 254 534 q 205 433 220 469 q 183 378 189 398 q 170 271 170 326 q 184 167 170 209 q 230 125 198 125 z "},"'":{"ha":243,"x_min":0,"x_max":141,"o":"m 64 910 q 32 920 47 910 q 8 946 16 929 q 1 981 2 958 q 0 1055 0 1000 q 19 1239 0 1219 q 77 1270 46 1270 q 110 1261 94 1270 q 134 1233 125 1251 q 141 1147 141 1208 q 136 1031 141 1091 q 122 949 131 971 q 98 920 114 930 q 64 910 81 910 z "},"(":{"ha":457,"x_min":0,"x_max":355,"o":"m 262 -38 q 66 206 163 -38 q 0 587 0 369 q 45 937 0 764 q 174 1236 90 1110 q 218 1286 193 1263 q 260 1316 243 1310 q 283 1320 273 1320 q 306 1316 292 1320 q 350 1260 344 1303 q 316 1191 350 1234 q 203 950 239 1084 q 168 675 168 816 q 231 293 168 475 q 308 143 266 192 q 355 54 355 96 q 344 12 355 33 q 309 -24 332 -9 q 262 -38 285 -38 z "},")":{"ha":457,"x_min":0,"x_max":355,"o":"m 94 -38 q 47 -24 71 -38 q 12 12 23 -9 q 0 54 0 33 q 47 143 0 96 q 131 313 94 195 q 187 675 187 494 q 152 950 187 816 q 39 1191 117 1084 q 5 1260 5 1234 q 50 1316 12 1303 q 73 1320 63 1320 q 96 1316 83 1320 q 137 1286 112 1310 q 182 1236 163 1263 q 311 937 266 1110 q 355 587 355 764 q 290 206 355 369 q 94 -38 192 -38 z "},"*":{"ha":543,"x_min":0,"x_max":441,"o":"m 106 914 q 84 921 94 914 q 72 938 77 926 q 66 960 66 950 q 75 989 66 974 q 100 1030 83 1005 l 119 1061 l 91 1062 q 19 1070 36 1063 q 0 1107 2 1077 q 77 1158 0 1150 l 110 1162 l 98 1179 q 80 1208 86 1196 q 73 1236 73 1221 q 90 1270 73 1255 q 103 1282 98 1279 q 117 1285 109 1285 q 142 1281 132 1284 q 163 1269 152 1278 q 192 1240 174 1259 l 225 1206 q 275 1263 261 1250 q 313 1280 293 1280 q 345 1265 330 1280 q 361 1233 361 1250 q 354 1208 361 1222 q 343 1186 348 1194 q 338 1176 338 1177 q 355 1175 338 1175 q 397 1173 372 1174 q 432 1161 422 1173 q 441 1130 441 1150 q 391 1084 441 1087 l 326 1080 q 392 1010 378 1029 q 399 985 399 999 q 383 949 399 965 q 353 933 366 933 q 326 943 340 933 q 241 1018 278 973 l 225 1038 l 198 1000 q 147 934 165 954 q 106 914 129 914 z "},"+":{"ha":738,"x_min":0,"x_max":636,"o":"m 313 184 q 273 197 292 184 q 245 230 254 210 q 236 279 241 241 q 227 363 231 318 q 223 431 223 408 q 174 429 192 430 q 140 427 155 428 q 102 427 125 427 q 53 432 69 427 q 24 450 37 437 q 0 506 0 476 q 9 543 0 525 q 75 587 27 576 q 149 598 99 593 q 218 608 213 603 q 221 616 220 610 q 225 675 223 627 q 230 738 227 715 q 237 772 232 760 q 252 795 242 785 q 302 819 275 819 q 344 803 324 819 q 362 782 356 793 q 372 750 369 771 q 378 693 375 730 q 383 621 380 656 l 484 622 q 583 612 554 622 q 627 574 612 602 q 636 538 636 557 q 627 503 636 520 q 602 473 618 485 q 476 446 571 449 q 393 441 413 444 l 386 439 l 386 348 q 380 237 386 257 q 354 198 373 212 q 313 184 336 184 z "},",":{"ha":306,"x_min":0,"x_max":204,"o":"m 60 -141 q 19 -124 37 -141 q 0 -73 0 -108 q 3 -52 0 -62 q 29 4 10 -35 q 65 79 47 43 q 87 121 83 115 q 142 147 109 147 q 189 127 173 146 q 204 77 204 109 q 188 2 204 45 q 138 -88 171 -40 q 97 -132 114 -122 q 60 -141 79 -141 z "},"-":{"ha":661,"x_min":0,"x_max":559,"o":"m 368 398 l 167 401 q 39 427 77 406 q 0 488 0 448 q 15 529 0 510 q 55 555 30 549 q 207 561 71 559 q 343 565 315 563 q 465 573 427 573 q 543 540 517 573 q 559 494 559 519 q 549 459 559 477 q 504 419 534 433 q 437 402 474 406 q 368 398 401 398 z "},"­":{"ha":661,"x_min":0,"x_max":559,"o":"m 368 398 l 167 401 q 39 427 77 406 q 0 488 0 448 q 15 529 0 510 q 55 555 30 549 q 207 561 71 559 q 343 565 315 563 q 465 573 427 573 q 543 540 517 573 q 559 494 559 519 q 549 459 559 477 q 504 419 534 433 q 437 402 474 406 q 368 398 401 398 z "},".":{"ha":304,"x_min":0,"x_max":203,"o":"m 99 -28 q 26 3 52 -26 q 0 78 0 32 q 26 150 0 120 q 101 180 53 180 q 203 68 203 179 q 170 -3 199 23 q 99 -28 141 -28 z "},"/":{"ha":758,"x_min":0,"x_max":656,"o":"m 81 -43 q 49 -35 64 -43 q 25 -19 34 -28 q 9 5 16 -9 q 0 37 0 19 q 18 102 0 58 q 81 245 36 147 l 229 572 q 494 1157 449 1064 q 528 1218 516 1201 q 584 1255 550 1255 q 633 1237 609 1255 q 656 1187 656 1220 q 640 1115 656 1158 q 384 515 606 1031 l 205 100 q 153 -8 167 9 q 120 -34 139 -25 q 81 -43 100 -43 z "},":":{"ha":304,"x_min":0,"x_max":203,"o":"m 99 210 q 26 241 52 212 q 0 317 0 271 q 26 389 0 359 q 101 418 53 418 q 203 307 203 418 q 170 236 199 262 q 99 210 141 210 m 99 595 q 26 627 52 597 q 0 702 0 656 q 26 774 0 745 q 101 804 53 804 q 178 775 154 803 q 203 692 203 747 q 170 621 199 647 q 99 595 141 595 z "},";":{"ha":331,"x_min":0,"x_max":229,"o":"m 125 595 q 52 627 78 597 q 26 702 26 656 q 53 774 26 745 q 127 804 79 804 q 205 775 180 803 q 229 692 229 747 q 197 621 226 647 q 125 595 168 595 m 60 123 q 33 130 47 123 q 9 151 19 136 q 0 190 0 166 q 3 212 0 202 q 29 268 10 229 q 65 343 47 307 q 87 386 83 379 q 140 411 109 411 q 204 341 204 407 q 188 266 204 309 q 138 176 171 223 q 119 153 128 163 q 60 123 94 123 z "},";":{"ha":331,"x_min":0,"x_max":229,"o":"m 125 595 q 52 627 78 597 q 26 702 26 656 q 53 774 26 745 q 127 804 79 804 q 205 775 180 803 q 229 692 229 747 q 197 621 226 647 q 125 595 168 595 m 60 123 q 33 130 47 123 q 9 151 19 136 q 0 190 0 166 q 3 212 0 202 q 29 268 10 229 q 65 343 47 307 q 87 386 83 379 q 140 411 109 411 q 204 341 204 407 q 188 266 204 309 q 138 176 171 223 q 119 153 128 163 q 60 123 94 123 z "},"<":{"ha":661,"x_min":0,"x_max":559,"o":"m 445 77 q 397 91 425 77 q 327 146 370 104 q 214 248 286 186 q 89 370 149 305 q 11 467 28 435 q 0 513 0 488 q 27 588 0 552 q 167 703 39 603 l 294 804 q 389 879 355 854 q 440 912 422 904 q 475 920 458 920 q 535 893 511 920 q 559 836 559 867 q 544 788 559 814 q 469 705 532 769 q 316 559 406 642 q 245 490 245 493 q 301 433 245 484 q 426 323 356 382 q 502 255 477 279 q 534 212 527 231 q 542 168 541 193 q 539 150 542 158 q 529 128 536 142 q 514 106 522 114 q 492 90 507 98 q 445 77 468 77 z "},"=":{"ha":769,"x_min":0,"x_max":667,"o":"m 528 564 l 519 564 q 382 568 473 564 q 51 606 90 580 q 24 633 34 616 q 15 669 15 650 q 26 704 15 688 q 54 729 39 723 q 102 734 68 734 q 394 729 256 732 q 557 722 532 726 q 629 677 612 712 q 639 643 639 658 q 630 612 639 627 q 596 580 618 591 q 528 564 573 569 m 543 217 q 440 220 505 217 q 140 242 232 231 q 27 272 47 254 q 0 327 0 296 q 9 362 0 345 q 36 390 18 379 l 39 392 q 53 397 43 395 q 98 398 62 398 q 356 395 136 398 q 581 387 541 392 q 618 377 606 384 q 642 360 631 371 q 667 303 667 333 q 642 248 667 273 q 607 224 626 231 q 543 217 588 217 z "},">":{"ha":708,"x_min":0,"x_max":606,"o":"m 120 74 q 65 99 90 74 q 41 159 41 123 q 49 195 41 177 q 203 364 73 248 q 313 469 269 425 q 357 519 357 513 q 326 540 357 521 q 109 686 239 591 q 33 744 54 726 q 0 817 0 775 q 25 879 0 854 q 94 905 50 904 q 124 901 109 905 q 233 839 149 892 q 371 754 283 808 q 554 641 532 656 q 606 547 606 600 q 604 524 606 536 q 583 486 600 508 q 492 388 565 465 q 277 170 352 239 q 157 83 201 102 q 120 74 138 74 z "},"?":{"ha":861,"x_min":0,"x_max":760,"o":"m 350 -125 q 278 -81 313 -105 q 218 -24 243 -58 q 189 31 200 1 q 178 92 178 62 q 210 174 178 142 q 269 203 240 203 q 353 151 313 203 q 390 183 365 171 q 443 195 415 195 q 515 161 491 195 q 534 98 534 132 q 519 35 534 64 q 448 -55 497 -9 q 350 -125 399 -102 m 359 229 q 307 246 332 229 q 279 278 288 260 q 271 328 271 297 l 271 348 q 330 525 289 455 q 427 661 371 595 q 469 715 448 687 q 538 843 514 775 q 562 972 562 910 q 544 1065 562 1023 q 487 1132 526 1107 q 387 1156 448 1156 q 310 1147 352 1156 q 197 1076 250 1132 q 121 949 143 1020 q 99 903 111 916 q 67 890 87 890 q 19 912 38 890 q 0 975 0 935 q 41 1108 0 1032 q 142 1241 81 1185 q 406 1334 241 1334 q 595 1284 515 1334 q 717 1149 674 1234 q 760 964 760 1065 q 729 794 760 881 q 633 624 698 707 l 588 567 q 531 494 553 524 q 492 433 509 465 q 438 304 454 365 q 422 262 431 278 q 389 235 413 247 q 359 229 374 229 z "},"@":{"ha":1014,"x_min":0,"x_max":912,"o":"m 362 55 q 312 57 340 55 q 127 136 205 62 q 34 268 67 191 q 0 443 0 346 q 48 679 0 560 q 189 887 96 798 q 416 1011 281 977 q 537 1025 475 1025 q 675 1006 608 1025 q 796 948 743 987 q 881 849 849 909 q 912 710 912 790 q 881 525 911 606 q 704 323 823 352 q 665 317 684 317 q 572 355 613 317 q 554 369 559 369 q 549 364 551 369 q 516 326 539 347 q 472 296 492 305 q 414 283 442 283 q 301 341 349 283 q 254 486 254 399 q 284 620 257 555 q 355 730 312 686 q 467 782 410 782 q 516 773 496 782 q 568 743 530 766 l 585 751 q 614 761 606 761 q 646 745 629 761 q 664 710 664 729 q 657 667 664 697 q 649 603 651 636 q 647 520 647 570 q 649 479 647 491 q 656 458 650 467 q 679 438 664 438 q 703 446 688 438 q 773 538 744 469 q 806 699 802 608 q 726 864 806 809 q 547 912 655 912 q 397 888 469 912 q 239 774 299 852 q 153 603 180 697 q 126 429 126 509 q 145 330 126 376 q 213 241 164 284 q 291 194 250 209 q 372 178 332 178 q 464 198 414 178 q 522 214 511 214 q 558 198 543 214 q 574 159 574 181 q 515 96 574 123 q 438 64 470 73 q 362 55 406 55 m 419 406 q 457 442 433 406 q 512 563 480 478 q 529 619 529 610 q 526 631 529 626 q 507 654 519 642 q 473 675 486 675 q 430 646 452 675 q 392 574 408 616 q 376 495 376 532 q 391 430 376 454 q 419 406 407 406 z "},"A":{"ha":987,"x_min":0,"x_max":797,"o":"m 250 -91 q 165 -66 214 -91 q 9 201 48 -3 q 0 370 0 250 q 9 551 0 475 q 60 775 25 659 q 138 985 95 892 q 268 1165 194 1102 q 420 1228 341 1228 q 529 1196 473 1228 q 620 1113 585 1163 l 633 1092 l 635 1102 q 642 1168 639 1130 q 671 1251 645 1227 q 718 1272 692 1272 q 763 1256 742 1272 q 792 1213 784 1240 q 797 812 797 1189 q 795 454 797 638 q 792 145 794 271 q 788 10 791 20 q 761 -22 779 -7 q 727 -43 744 -37 q 694 -49 710 -49 q 627 -19 656 -49 q 594 60 599 11 l 593 85 q 598 276 593 131 q 600 363 600 347 l 600 367 q 572 297 597 366 q 429 2 490 85 q 284 -87 372 -68 q 250 -91 264 -91 m 269 94 q 288 104 276 94 q 438 389 345 158 q 593 869 530 619 l 577 907 q 506 1027 545 985 q 431 1069 467 1069 q 402 1061 417 1069 q 363 1027 388 1053 q 260 817 307 962 q 197 509 214 672 q 194 415 194 467 q 197 308 194 361 q 207 224 201 255 q 236 132 218 169 q 269 94 254 94 z "},"B":{"ha":1162,"x_min":0,"x_max":1000,"o":"m 286 -73 q 120 -46 171 -73 q 56 26 70 -19 q 51 58 51 43 q 75 118 51 94 q 134 142 100 142 l 157 142 q 162 265 161 197 q 169 603 164 333 q 140 629 151 614 q 130 673 130 644 q 140 709 130 695 q 173 749 149 724 l 177 863 l 181 918 q 193 1116 193 1084 q 193 1123 193 1122 q 191 1124 192 1123 q 156 1111 185 1124 q 121 1094 132 1101 q 103 1075 111 1087 q 79 1053 93 1060 q 52 1045 66 1045 q 16 1059 31 1045 q 0 1097 0 1072 q 8 1134 0 1114 q 106 1211 27 1171 q 293 1276 186 1251 q 414 1287 349 1287 q 511 1278 472 1287 q 657 1167 620 1249 q 680 1063 680 1118 q 610 857 680 964 q 590 825 590 826 q 612 819 590 823 q 788 766 704 804 q 922 678 873 728 q 1000 468 1000 602 q 940 263 1000 357 q 757 84 880 169 q 438 -60 607 -16 q 370 -69 412 -66 q 286 -73 327 -73 m 358 134 l 368 136 q 467 165 414 146 q 677 275 585 209 q 802 406 769 340 q 818 448 814 432 q 821 492 821 465 q 811 540 821 520 q 778 578 801 559 q 639 647 720 622 q 483 671 558 671 q 405 663 432 671 q 344 637 377 654 q 346 484 344 591 q 351 282 348 377 q 355 163 353 186 l 358 134 m 339 827 q 353 835 340 827 q 384 855 366 843 q 528 1065 517 951 l 529 1084 q 527 1101 529 1095 q 518 1114 524 1107 q 459 1145 500 1137 q 351 1154 419 1153 q 319 1152 325 1154 q 328 970 320 1103 q 339 827 336 827 z "},"C":{"ha":910,"x_min":0,"x_max":744,"o":"m 401 -56 q 270 -32 327 -56 q 168 39 214 -8 q 0 541 0 210 l 0 553 q 7 677 0 624 q 36 800 14 730 q 335 1215 127 1112 q 514 1265 435 1265 q 608 1242 568 1265 q 665 1175 648 1219 q 676 1131 676 1147 q 661 1098 676 1111 q 631 1085 646 1085 q 578 1114 609 1085 q 563 1127 568 1124 q 551 1131 557 1131 q 437 1090 493 1124 q 342 1006 382 1056 q 252 820 291 939 q 214 574 214 701 q 248 323 214 445 q 299 217 268 264 q 361 153 330 170 q 431 138 393 138 q 548 179 492 138 q 593 222 577 200 q 623 260 604 239 q 675 286 648 286 q 723 264 702 286 q 744 206 744 243 q 705 109 744 161 q 605 13 665 56 q 481 -47 545 -30 q 401 -56 444 -56 z "},"D":{"ha":1141,"x_min":0,"x_max":970,"o":"m 304 -66 q 243 -42 264 -66 q 216 23 223 -19 q 203 202 203 90 q 210 387 203 289 l 212 404 q 262 1095 241 1059 q 291 1130 273 1118 q 329 1142 309 1142 q 364 1132 347 1142 q 391 1101 381 1122 q 411 934 404 1081 q 425 439 418 787 q 430 203 428 276 q 431 176 431 178 q 433 174 431 174 q 475 199 441 174 q 667 389 594 276 q 754 562 727 479 q 782 741 781 646 q 652 1067 782 941 q 526 1152 591 1126 q 372 1178 460 1178 q 209 1147 267 1178 q 153 1107 180 1133 q 126 1063 126 1082 q 136 1040 126 1053 q 169 1003 146 1026 q 193 978 185 987 q 202 962 200 968 q 204 947 204 956 q 201 929 204 936 q 189 915 198 923 q 173 905 180 907 q 152 902 165 902 q 77 932 117 902 q 15 1008 38 962 q 3 1038 5 1026 q 0 1074 0 1050 q 3 1108 0 1095 q 13 1136 5 1120 q 321 1329 90 1294 q 394 1333 354 1333 q 548 1318 476 1333 q 726 1231 640 1293 q 867 1088 812 1169 q 944 918 918 1012 q 970 724 970 824 q 949 551 970 637 q 713 144 884 315 q 579 46 671 104 q 395 -45 488 -11 q 304 -66 340 -66 z "},"E":{"ha":837,"x_min":6,"x_max":678,"o":"m 569 -36 q 500 -31 526 -36 q 302 -5 382 -5 q 184 -13 245 -5 l 120 -18 q 8 89 16 -18 q 6 145 6 117 q 13 879 6 595 q 32 1201 19 1163 q 100 1261 56 1250 q 178 1270 138 1270 l 205 1270 q 467 1289 333 1274 q 582 1298 553 1298 q 623 1291 606 1298 q 655 1270 644 1283 q 665 1242 665 1257 q 651 1210 665 1225 q 610 1189 637 1194 q 489 1172 574 1182 q 317 1154 403 1162 q 206 1146 231 1146 l 212 1041 q 219 888 218 895 q 220 859 220 871 q 221 838 220 846 q 222 824 222 829 q 223 811 223 813 q 226 808 224 808 l 239 809 q 444 817 309 817 l 521 818 q 568 817 553 818 q 592 814 584 816 q 610 808 601 812 l 610 808 q 660 767 642 793 q 678 712 678 741 q 669 673 678 692 q 645 645 661 659 q 611 623 629 631 q 553 613 594 613 q 392 627 520 613 q 227 642 310 636 l 230 413 q 236 163 232 304 q 503 162 462 163 q 567 156 545 161 q 609 140 590 151 q 673 52 673 107 q 629 -23 673 7 q 605 -33 618 -30 q 569 -36 593 -35 z "},"F":{"ha":791,"x_min":0,"x_max":828,"o":"m 112 -54 q 47 -31 77 -54 q 6 25 17 -8 q 0 208 0 59 q 5 570 0 359 q 17 955 9 781 q 32 1185 24 1128 q 60 1241 40 1231 q 113 1251 80 1251 l 117 1251 q 583 1264 446 1258 q 701 1270 686 1269 l 710 1271 q 809 1226 779 1271 q 828 1165 828 1198 q 814 1113 828 1138 q 770 1074 800 1088 q 748 1066 760 1068 q 713 1063 736 1063 q 584 1070 675 1063 q 408 1079 493 1076 q 195 1082 273 1082 l 200 1003 l 212 729 q 372 747 235 734 q 492 761 424 753 l 510 762 q 595 730 559 762 q 630 652 630 699 q 614 598 630 623 q 570 558 598 573 q 546 550 560 553 q 494 547 531 547 q 219 555 444 547 l 221 391 q 222 280 221 348 l 225 50 l 215 22 q 173 -34 201 -14 q 112 -54 144 -54 z "},"G":{"ha":1050,"x_min":0,"x_max":932,"o":"m 753 -71 q 682 -38 703 -69 q 650 65 661 -7 q 549 -2 597 24 q 376 -47 464 -47 q 311 -43 343 -47 q 85 123 180 -28 q 20 267 39 197 q 0 429 0 338 q 41 685 1 553 q 155 937 81 818 q 332 1139 229 1056 q 566 1245 436 1222 q 644 1251 602 1251 q 782 1234 721 1251 q 892 1167 852 1211 q 932 1069 932 1123 q 916 1015 932 1034 q 871 996 899 996 q 851 997 859 996 q 837 1006 844 999 q 818 1027 829 1013 q 791 1058 802 1048 q 765 1071 780 1067 q 691 1077 747 1074 q 530 1037 600 1077 q 408 930 460 996 q 320 786 357 865 q 260 628 284 707 q 238 525 246 582 q 231 423 231 469 q 256 297 231 355 q 301 220 271 260 q 342 184 321 193 q 395 176 362 176 q 497 203 444 176 q 587 271 549 230 q 633 355 625 312 q 636 375 636 368 q 634 384 636 380 q 626 391 631 387 q 592 402 617 399 q 507 411 568 406 l 424 418 q 386 454 399 437 q 373 498 373 470 q 386 541 373 519 q 426 572 399 564 q 524 579 454 579 q 651 587 559 579 q 728 592 707 592 q 756 589 747 592 q 840 453 838 562 q 850 105 850 184 q 848 55 850 71 q 843 23 846 39 q 829 -24 838 -7 q 804 -53 821 -41 q 753 -71 784 -71 z "},"H":{"ha":1278,"x_min":0,"x_max":1219,"o":"m 288 -33 q 215 -6 247 -33 q 172 66 182 20 q 166 390 166 106 q 167 490 166 458 l 167 569 l 168 712 l 163 713 q 35 732 60 720 q 9 756 18 741 q 0 789 0 772 q 10 823 0 806 q 39 848 20 839 q 138 865 63 857 q 172 870 170 868 q 176 902 174 873 q 184 1031 179 963 q 201 1207 196 1186 q 230 1251 208 1234 q 278 1268 252 1268 q 361 1184 345 1266 q 374 1053 370 1141 q 378 877 378 964 q 462 879 396 877 q 815 888 686 884 l 823 1037 q 832 1154 827 1113 q 846 1214 837 1195 q 872 1244 855 1234 q 915 1258 894 1258 q 965 1235 943 1258 q 995 1173 987 1213 q 1008 1036 997 1158 q 1019 899 1019 919 q 1039 898 1019 898 q 1085 899 1073 898 q 1117 900 1097 899 q 1141 897 1133 900 q 1162 888 1149 895 q 1219 799 1219 859 q 1194 725 1219 752 q 1156 697 1177 705 q 1095 690 1135 690 l 1027 690 q 1040 505 1033 637 q 1048 358 1042 450 q 1059 106 1059 170 q 1055 56 1059 66 q 1010 -6 1042 18 q 941 -31 978 -31 q 870 -7 903 -31 q 825 56 837 16 q 818 162 821 73 q 811 366 814 251 q 808 565 808 481 l 810 663 q 809 685 810 678 q 806 695 808 692 q 801 697 804 697 q 577 703 781 700 q 387 705 493 703 q 395 520 391 643 q 403 278 399 397 q 406 121 406 159 q 399 52 406 77 q 375 7 393 27 q 288 -33 337 -33 z "},"I":{"ha":610,"x_min":0,"x_max":512,"o":"m 141 -29 q 12 42 12 -29 q 45 93 12 75 q 71 98 54 98 q 89 98 82 98 q 106 97 96 98 q 136 94 116 96 q 142 397 140 186 l 148 1153 q 58 1149 90 1149 q 36 1151 43 1149 q 22 1157 29 1153 q 6 1176 12 1164 q 0 1200 0 1188 q 51 1253 3 1239 q 166 1271 90 1263 q 307 1278 243 1278 q 351 1277 338 1278 q 371 1270 363 1275 q 397 1224 397 1253 q 381 1186 397 1200 q 340 1172 365 1172 l 335 1171 q 314 1168 322 1171 q 305 1160 305 1166 l 307 1149 q 327 902 317 1080 q 341 498 336 723 q 355 227 346 320 q 368 132 364 134 q 395 138 374 132 q 458 149 442 149 q 477 144 467 149 q 503 122 494 136 q 512 93 512 109 q 503 62 512 77 q 475 39 493 47 q 389 11 450 28 q 281 -17 328 -7 q 141 -29 221 -29 z "},"J":{"ha":926,"x_min":0,"x_max":736,"o":"m 305 -45 q 222 -31 273 -45 q 186 -18 203 -25 q 55 95 110 20 q 0 236 0 170 q 27 314 3 287 q 87 342 51 342 q 138 318 117 342 q 160 256 160 294 q 190 207 160 237 q 252 165 220 176 q 298 159 271 159 q 385 172 339 159 q 496 312 462 195 q 530 631 530 430 q 492 1027 530 831 q 478 1079 486 1051 q 461 1127 469 1107 q 450 1147 453 1147 l 434 1143 q 328 1119 353 1119 q 289 1134 302 1119 q 276 1166 276 1149 q 304 1209 276 1190 q 389 1240 325 1221 q 523 1275 453 1259 q 621 1291 592 1291 q 656 1279 642 1291 q 670 1246 670 1267 q 665 1223 670 1234 q 640 1201 657 1212 q 609 1190 623 1191 q 601 1187 601 1190 q 608 1172 601 1186 q 657 1054 640 1107 q 705 886 688 968 q 736 542 736 727 q 726 349 736 426 q 446 -26 669 30 q 374 -40 413 -35 q 305 -45 334 -45 z "},"K":{"ha":1054,"x_min":0,"x_max":890,"o":"m 140 -50 q 68 -25 102 -50 q 24 43 35 0 q 12 228 17 77 q 3 580 7 379 q 0 951 0 781 q 2 1152 0 1070 q 9 1250 4 1234 q 27 1282 14 1265 q 54 1307 41 1299 q 96 1318 75 1318 q 143 1304 121 1318 q 177 1266 165 1291 q 186 1236 181 1257 q 210 1034 197 1191 q 224 843 216 956 q 231 786 226 788 q 254 811 236 786 q 351 943 283 850 q 482 1120 419 1036 q 559 1221 545 1205 q 648 1264 600 1264 q 722 1232 689 1264 q 746 1160 746 1201 q 736 1112 746 1135 q 635 998 726 1094 q 545 898 590 949 l 483 818 q 600 627 543 724 q 869 155 800 290 q 890 77 890 113 q 860 2 890 36 q 819 -30 840 -21 q 768 -38 798 -38 q 678 3 713 -38 q 606 133 663 24 q 481 382 550 241 q 347 671 391 567 l 240 562 q 252 327 245 484 q 260 75 258 170 q 258 43 260 54 q 248 18 255 33 q 203 -32 232 -14 q 140 -50 174 -50 z "},"L":{"ha":1019,"x_min":0,"x_max":895,"o":"m 142 -68 q 87 -66 101 -68 q 48 -55 61 -60 q 26 -40 36 -50 q 6 -15 12 -28 q 0 18 0 -2 q 81 93 0 75 l 108 98 q 130 1233 108 1133 q 163 1283 139 1264 q 215 1301 187 1301 q 275 1275 251 1301 q 305 1198 298 1249 q 335 551 322 1060 l 345 137 q 532 163 476 157 q 726 182 604 172 q 785 186 766 186 q 821 179 804 186 q 877 136 858 164 q 895 77 895 108 q 881 25 895 50 q 836 -15 866 1 q 803 -26 823 -22 q 623 -41 772 -33 q 478 -51 565 -45 q 142 -68 229 -68 z "},"M":{"ha":1239,"x_min":0,"x_max":1049,"o":"m 939 -20 q 884 -5 911 -20 q 842 40 858 10 q 822 134 833 59 q 803 306 812 208 q 790 492 793 404 l 787 568 q 745 402 766 494 q 697 208 723 302 q 635 48 671 113 q 592 -1 616 12 q 528 -16 568 -14 q 464 8 488 -16 q 420 82 440 32 q 377 212 401 133 q 291 458 355 287 q 236 606 237 606 q 234 586 235 606 q 232 514 233 566 q 232 265 232 462 q 231 85 232 108 q 225 54 229 62 q 179 0 210 20 q 115 -20 149 -20 q 37 16 71 -20 q 9 60 18 37 q 4 90 7 68 q 0 297 0 136 q 41 1251 1 1195 q 75 1286 54 1274 q 119 1299 96 1299 q 162 1286 142 1299 q 196 1251 183 1274 q 308 1021 259 1129 q 406 781 357 913 q 500 543 452 659 q 541 445 517 503 q 566 387 564 387 q 600 521 567 389 l 626 625 q 720 997 667 786 l 756 1144 q 785 1245 777 1228 q 795 1261 789 1255 q 873 1300 825 1300 q 904 1297 893 1300 q 926 1284 915 1294 q 962 1236 957 1261 q 977 1110 972 1187 q 985 948 982 1033 q 998 742 989 827 q 1013 564 1004 676 q 1032 348 1022 451 q 1049 109 1049 195 q 1043 48 1049 64 q 999 -3 1027 14 q 939 -20 970 -20 z "},"N":{"ha":1047,"x_min":0,"x_max":857,"o":"m 116 -26 q 46 0 79 -26 q 3 70 14 25 q 0 237 0 81 l 1 427 q 16 1080 3 839 q 17 1118 17 1099 l 17 1128 q 27 1215 17 1173 q 85 1280 38 1257 q 121 1289 104 1289 q 168 1273 147 1289 q 229 1186 199 1247 q 306 1048 258 1131 q 370 934 342 985 q 433 825 420 846 q 618 469 508 700 q 630 1193 624 1122 q 647 1246 635 1231 q 707 1277 674 1277 q 731 1272 720 1277 q 768 1243 755 1264 q 788 1161 781 1222 q 806 968 796 1099 q 841 467 825 730 q 857 132 857 203 q 843 55 857 84 q 791 9 828 26 q 765 1 777 3 q 728 -1 752 -1 q 654 17 680 -1 q 598 92 629 35 q 535 191 574 134 q 452 326 494 250 q 347 530 410 401 q 263 696 290 646 q 202 808 250 722 q 232 227 210 705 q 235 112 235 145 q 234 79 235 90 q 229 60 232 69 q 183 -3 214 20 q 116 -26 153 -26 z "},"O":{"ha":1061,"x_min":0,"x_max":871,"o":"m 412 -27 q 186 68 281 -27 q 79 218 120 135 q 0 575 0 375 q 12 729 0 653 q 176 1148 50 999 q 302 1245 230 1213 q 451 1277 374 1277 q 583 1252 518 1277 q 701 1178 648 1227 q 792 1056 759 1124 q 846 882 826 987 q 871 643 871 755 q 846 408 871 530 q 783 234 829 323 q 668 76 737 145 q 511 -18 599 7 q 412 -27 473 -27 m 418 200 q 514 244 467 200 q 595 362 560 289 q 647 522 630 435 q 655 673 655 583 q 646 830 655 761 q 610 968 637 899 q 517 1065 572 1065 q 503 1063 511 1065 q 490 1058 494 1061 q 473 1023 479 1050 q 465 959 466 996 q 473 899 465 922 q 503 855 481 877 q 529 821 522 836 q 536 787 536 806 q 513 736 536 755 q 458 716 490 716 q 363 765 410 716 q 287 897 317 813 l 277 926 q 237 767 251 847 q 224 590 224 686 q 242 427 224 496 q 294 296 266 346 q 354 223 323 245 q 418 200 386 200 z "},"P":{"ha":1050,"x_min":0,"x_max":937,"o":"m 272 -57 q 243 -53 256 -57 q 168 15 189 -34 q 160 47 163 24 q 157 123 158 69 q 156 340 156 176 q 158 598 156 493 q 180 1122 161 783 q 127 1083 149 1103 q 105 1045 106 1063 q 90 1015 104 1026 q 58 1004 77 1004 q 18 1021 36 1004 q 0 1066 0 1038 q 43 1164 0 1107 q 196 1275 102 1237 q 409 1314 289 1314 l 449 1312 q 738 1228 618 1303 q 911 1021 857 1153 q 937 887 937 954 q 895 726 937 803 q 431 408 764 499 q 394 395 397 399 q 390 386 390 391 l 391 236 l 392 167 q 391 103 391 136 q 390 54 391 71 q 387 29 389 38 q 378 9 384 20 q 335 -39 361 -22 q 272 -57 309 -57 m 391 588 q 465 617 399 588 q 608 698 545 652 q 710 794 672 743 q 747 894 747 844 q 689 1032 747 960 q 631 1088 661 1067 q 422 1150 562 1133 l 412 1151 q 389 1153 397 1153 q 382 1152 384 1153 q 380 1147 380 1150 l 381 1135 l 382 1086 q 389 638 389 750 l 387 596 q 391 588 387 588 l 391 588 z "},"Q":{"ha":1061,"x_min":0,"x_max":913,"o":"m 828 -50 q 752 -25 798 -50 q 725 -9 736 -17 q 698 14 714 -2 q 651 60 682 29 q 551 -5 604 17 q 412 -27 498 -27 q 186 68 280 -27 q 79 218 120 135 q 0 575 0 375 q 12 729 0 653 q 176 1148 50 999 q 302 1245 230 1213 q 451 1277 374 1277 q 583 1252 518 1277 q 701 1178 648 1227 q 792 1056 759 1124 q 846 882 826 987 q 871 643 871 755 q 769 209 871 392 l 787 194 q 903 81 892 104 q 913 35 913 58 q 888 -25 913 -1 q 828 -50 863 -50 m 418 200 q 493 228 456 200 q 417 366 417 313 q 439 420 417 397 q 494 443 460 443 q 538 431 517 443 q 600 374 552 421 q 641 492 626 428 q 655 673 655 557 q 646 830 655 761 q 610 968 637 899 q 517 1065 572 1065 q 503 1063 511 1065 q 490 1058 494 1061 q 473 1023 479 1050 q 465 959 466 996 q 473 899 465 922 q 503 855 481 877 q 529 821 521 836 q 536 787 536 806 q 513 736 536 755 q 458 716 490 716 q 363 765 410 716 q 287 897 317 813 l 277 926 q 237 766 251 847 q 224 589 224 686 q 294 296 224 420 q 418 200 349 200 z "},"R":{"ha":1173,"x_min":0,"x_max":1057,"o":"m 944 -94 q 899 -86 917 -94 q 867 -66 882 -79 q 832 -20 853 -52 q 774 73 811 12 q 688 222 738 135 q 598 379 637 310 q 555 457 559 449 q 553 458 555 458 q 475 435 543 458 q 410 416 427 420 q 398 412 402 415 q 392 401 393 410 q 391 372 391 392 q 393 118 393 245 q 392 68 393 85 q 388 43 391 52 q 378 23 385 34 q 279 -42 345 -42 q 169 28 199 -41 q 159 110 161 46 q 157 410 157 173 q 159 622 157 511 l 159 715 q 175 1134 161 1012 q 154 1118 164 1125 q 130 1098 143 1110 q 111 1077 116 1085 q 105 1059 105 1069 q 90 1028 104 1040 q 59 1017 77 1017 q 18 1035 37 1017 q 0 1080 0 1052 q 43 1177 0 1121 q 196 1289 102 1251 q 411 1327 290 1327 q 716 1253 583 1327 q 911 1036 850 1179 q 939 903 939 968 q 861 685 939 791 q 807 625 840 659 q 757 579 775 592 q 739 562 739 566 q 857 375 739 557 q 1019 121 979 186 q 1057 22 1057 62 q 1027 -56 1057 -21 q 944 -94 996 -91 m 391 602 q 465 631 399 602 q 609 712 546 667 q 710 808 673 758 q 747 908 747 859 q 690 1046 747 976 q 631 1102 661 1081 q 425 1166 551 1152 q 389 1169 398 1169 q 383 1168 384 1169 q 382 1164 382 1166 l 382 1163 q 387 854 384 986 q 389 651 389 718 l 388 610 q 391 602 388 602 l 391 602 z "},"S":{"ha":1108,"x_min":0,"x_max":918,"o":"m 383 -82 q 311 -79 341 -82 q 27 94 98 -50 q 0 212 0 153 q 29 330 0 272 q 86 398 53 374 q 150 422 119 422 q 200 399 180 422 q 221 340 221 376 q 207 272 221 312 q 196 226 196 242 q 202 208 196 215 q 220 195 208 201 q 299 170 256 177 q 408 161 342 162 q 627 222 557 161 q 664 260 654 243 q 673 307 673 276 q 663 384 672 353 q 625 446 654 414 q 572 485 608 467 q 452 530 535 503 q 242 614 316 576 q 61 785 104 684 q 41 898 41 832 q 109 1099 41 1001 q 368 1286 206 1240 q 491 1298 422 1298 q 591 1289 551 1298 q 701 1236 653 1272 q 775 1148 748 1200 q 802 1029 802 1096 q 779 954 802 975 q 745 940 764 940 q 708 953 725 940 q 685 1005 691 966 q 674 1047 682 1029 q 645 1084 666 1065 q 599 1111 623 1103 q 541 1118 574 1118 q 461 1109 502 1118 q 391 1082 420 1099 q 306 997 341 1051 q 271 903 271 943 q 328 836 271 867 q 543 755 385 806 q 700 692 646 722 q 796 616 755 662 q 890 473 863 547 q 918 295 916 400 q 911 226 918 256 q 887 163 903 197 q 862 119 875 138 q 825 75 848 100 q 477 -79 697 -63 q 383 -82 429 -82 z "},"T":{"ha":879,"x_min":0,"x_max":1017,"o":"m 547 -29 q 448 37 481 -29 q 437 74 439 52 q 429 512 429 149 l 431 1038 l 410 1036 q 259 1018 366 1033 q 118 1006 167 1006 q 79 1007 93 1006 q 56 1011 65 1008 q 38 1021 47 1015 q 0 1088 0 1046 q 67 1172 0 1154 q 299 1217 124 1185 q 671 1265 460 1245 q 860 1279 806 1279 q 940 1275 916 1279 q 983 1255 965 1270 q 1017 1184 1017 1224 q 928 1087 1017 1114 q 719 1058 863 1068 l 647 1053 q 618 1050 621 1050 q 615 1048 615 1049 q 623 935 615 1033 q 654 464 640 732 q 669 102 669 195 q 629 -1 669 36 q 547 -29 599 -29 z "},"U":{"ha":1075,"x_min":0,"x_max":867,"o":"m 304 -35 q 150 35 221 -35 q 0 554 0 189 q 16 884 0 707 q 27 987 20 918 q 42 1117 35 1055 q 51 1193 49 1179 q 78 1233 56 1215 q 120 1252 100 1252 q 154 1244 137 1252 q 181 1223 170 1236 q 197 1181 191 1211 q 205 1087 203 1151 q 210 910 208 1024 q 214 602 214 707 l 214 558 q 229 335 214 406 q 304 227 252 227 q 375 263 336 227 q 452 355 414 300 q 522 471 490 411 q 576 581 555 531 l 591 618 q 654 774 624 689 l 665 953 q 670 1002 667 978 q 682 1131 677 1076 q 689 1198 687 1187 q 720 1253 697 1234 q 768 1272 742 1272 q 829 1238 804 1272 q 844 1130 839 1227 q 851 715 847 1047 q 865 245 857 368 q 867 178 867 205 q 854 59 867 90 q 809 7 838 25 q 749 -11 781 -11 q 665 29 703 -11 q 643 89 648 48 q 635 188 637 129 l 632 281 q 626 270 629 275 q 574 174 599 216 q 511 82 550 132 q 304 -35 414 -35 z "},"V":{"ha":949,"x_min":0,"x_max":918,"o":"m 444 -40 q 428 -38 435 -40 q 340 41 370 -20 q 293 169 321 82 q 239 347 264 255 q 158 628 206 463 q 67 933 109 793 q 13 1114 25 1073 q 0 1190 0 1159 q 21 1250 0 1230 q 72 1270 43 1270 q 150 1200 117 1270 q 292 852 205 1084 q 439 426 389 595 q 470 331 466 336 q 505 422 475 331 l 676 963 q 734 1153 708 1062 q 766 1240 751 1213 q 838 1284 791 1284 q 894 1261 873 1284 q 918 1197 916 1238 q 893 1091 918 1175 q 823 865 868 1007 q 696 455 770 697 q 602 161 635 260 q 548 25 569 62 q 505 -24 528 -12 q 476 -36 493 -31 q 444 -40 458 -40 z "},"W":{"ha":1496,"x_min":0,"x_max":1306,"o":"m 922 -30 q 814 -10 858 -30 q 737 43 770 9 q 703 83 717 64 q 676 132 690 102 q 641 216 662 163 q 639 219 640 219 q 623 189 634 219 q 427 -11 560 33 q 356 -19 403 -19 l 336 -19 q 287 -17 304 -19 q 249 -7 270 -16 q 18 345 66 68 q 0 632 0 473 q 11 848 0 751 q 27 991 18 903 q 44 1155 36 1080 q 58 1244 53 1230 q 85 1272 66 1262 q 124 1281 104 1281 q 160 1273 143 1281 q 185 1249 177 1265 q 193 1173 193 1231 q 188 996 193 1110 q 182 795 182 873 q 184 700 182 743 q 336 186 213 226 q 371 180 353 180 q 428 210 404 180 q 498 346 466 249 q 564 624 530 444 q 600 928 598 804 q 612 1127 603 1046 q 645 1234 622 1208 q 700 1258 671 1258 q 739 1246 721 1258 q 769 1210 758 1234 q 774 1192 772 1202 q 777 1113 777 1177 q 793 762 779 1005 q 839 366 808 507 q 885 229 857 281 q 907 196 896 205 q 943 184 918 188 q 959 183 951 183 q 1016 209 989 183 q 1075 312 1051 239 q 1120 522 1099 385 q 1138 667 1133 608 q 1143 814 1143 726 q 1137 1006 1143 909 q 1118 1168 1131 1103 q 1109 1232 1109 1208 q 1134 1288 1109 1267 q 1185 1310 1158 1310 q 1230 1295 1208 1310 q 1262 1254 1251 1281 q 1279 1186 1270 1234 q 1296 1078 1289 1137 q 1306 801 1306 996 q 1295 508 1306 600 q 1242 222 1273 319 q 1152 66 1211 125 q 1057 -5 1110 20 q 922 -30 1004 -30 z "},"X":{"ha":1179,"x_min":0,"x_max":1011,"o":"m 902 -51 q 848 -36 872 -51 q 799 12 825 -21 q 703 146 772 47 q 547 374 633 245 q 448 516 450 516 q 247 199 444 516 q 157 58 195 117 q 110 -9 119 0 q 62 -32 86 -32 q 20 -14 39 -32 q 0 35 0 4 q 47 149 0 56 q 159 358 94 241 q 286 577 225 475 q 342 675 342 671 q 251 823 342 681 q 39 1170 73 1101 q 20 1224 20 1208 q 44 1279 20 1257 q 96 1301 67 1301 q 167 1264 130 1301 q 467 874 222 1204 l 647 1145 q 730 1270 718 1253 q 764 1297 742 1286 q 808 1308 786 1308 q 869 1286 843 1308 q 902 1209 902 1259 q 892 1170 902 1189 q 858 1120 883 1152 q 696 890 804 1048 q 585 720 585 727 q 607 684 585 717 q 663 604 630 650 q 997 112 960 189 q 1011 54 1011 81 q 979 -22 1011 7 q 902 -51 946 -51 z "},"Y":{"ha":914,"x_min":0,"x_max":978,"o":"m 524 -74 q 466 -56 497 -74 q 417 -1 435 -39 q 409 23 412 10 q 404 60 406 35 q 399 213 399 133 q 401 325 399 281 q 407 427 404 369 l 412 509 l 401 524 q 357 593 376 559 q 267 743 330 642 q 96 1025 154 928 q 19 1163 38 1122 q 0 1227 0 1204 q 27 1297 0 1265 q 96 1328 54 1328 q 158 1306 130 1328 q 219 1232 186 1284 q 288 1131 237 1203 q 389 983 341 1055 q 490 815 418 937 q 531 745 527 750 q 557 788 532 745 q 675 991 618 893 q 770 1175 719 1067 q 791 1217 783 1203 q 809 1246 798 1231 q 895 1298 843 1298 q 978 1211 978 1293 q 964 1148 978 1183 q 903 1035 950 1114 q 802 858 885 1004 q 656 604 685 652 l 618 543 q 625 393 622 485 q 639 152 630 269 q 646 52 646 91 q 557 -69 642 -43 q 524 -74 538 -74 z "},"Z":{"ha":1131,"x_min":0,"x_max":975,"o":"m 142 -35 q 75 -32 87 -35 q 22 12 43 -21 q 0 84 1 44 q 3 115 0 103 q 16 146 5 127 q 92 267 34 182 q 209 432 149 352 l 345 619 q 661 1017 503 841 q 693 1057 693 1053 q 595 1064 686 1060 q 378 1071 504 1069 q 230 1075 281 1072 q 154 1083 178 1078 q 117 1099 130 1089 q 87 1135 98 1113 q 76 1180 76 1157 q 97 1235 76 1211 q 152 1267 118 1260 q 269 1275 174 1272 q 490 1279 364 1278 q 720 1281 616 1281 q 894 1276 876 1281 q 932 1253 912 1272 q 963 1215 953 1234 q 971 1179 968 1203 q 975 1133 975 1156 q 968 1087 975 1102 q 809 867 954 1061 q 520 467 652 656 q 418 323 484 414 l 357 239 q 318 182 318 186 l 321 182 q 577 205 346 182 q 848 227 805 227 q 882 221 867 227 q 939 177 918 207 q 959 113 959 148 q 947 63 959 88 q 903 14 932 28 q 818 -5 875 -1 q 438 -26 633 -18 q 142 -35 243 -35 z "},"[":{"ha":501,"x_min":0,"x_max":399,"o":"m 127 -58 q 63 -49 82 -58 q 0 50 0 -24 q 9 342 0 113 q 20 689 18 553 q 23 1057 23 825 l 22 1219 q 34 1249 22 1236 q 92 1286 54 1274 q 216 1290 110 1290 q 334 1286 314 1290 q 382 1259 364 1279 q 399 1217 399 1239 q 384 1181 399 1198 q 364 1166 375 1172 q 273 1149 345 1158 q 181 1137 184 1139 q 178 1122 178 1135 q 185 580 181 987 q 182 330 185 430 q 172 106 178 229 q 258 104 224 104 q 312 102 292 103 q 342 99 332 101 q 359 91 352 96 q 384 37 384 67 q 375 2 384 19 q 348 -27 366 -16 q 302 -44 331 -39 q 214 -54 273 -50 q 127 -58 159 -58 z "},"\\":{"ha":839,"x_min":0,"x_max":737,"o":"m 667 -15 q 626 -1 646 -15 q 590 50 606 13 q 482 254 573 86 q 218 757 346 508 q 33 1125 90 1006 q 0 1217 0 1190 q 16 1255 0 1240 q 54 1271 32 1271 q 105 1242 84 1271 q 203 1076 127 1214 q 608 319 408 709 q 701 143 673 193 q 734 74 731 86 q 737 56 736 66 q 716 5 737 26 q 667 -15 694 -15 z "},"]":{"ha":498,"x_min":0,"x_max":396,"o":"m 168 -58 q 66 -55 83 -58 q 18 -27 35 -47 q 0 14 0 -7 q 16 50 0 34 q 35 64 24 59 q 126 82 54 73 q 218 95 215 93 q 222 111 222 96 q 216 376 217 279 q 212 669 214 452 q 215 901 212 809 q 223 1126 217 968 l 139 1128 q 66 1131 87 1128 q 37 1141 45 1133 q 12 1194 12 1164 q 21 1229 12 1212 q 47 1258 31 1246 q 93 1276 64 1270 q 182 1285 122 1282 q 270 1289 238 1289 q 396 1176 396 1289 q 390 952 396 1112 q 376 353 376 576 l 376 13 q 366 -18 376 -5 q 308 -54 345 -43 q 168 -58 286 -58 z "},"^":{"ha":656,"x_min":0,"x_max":555,"o":"m 473 853 q 399 889 432 853 q 285 1041 319 989 q 260 1076 262 1076 q 250 1064 260 1076 q 217 1023 240 1053 q 152 941 193 994 q 87 870 102 878 q 58 863 72 863 q 17 880 35 863 q 0 927 0 898 q 4 951 0 940 q 23 985 8 963 l 169 1191 q 229 1263 208 1247 q 275 1279 250 1279 q 324 1258 300 1279 q 380 1187 348 1237 q 432 1114 407 1146 q 500 1036 458 1082 q 544 981 534 1000 q 555 936 555 962 q 530 876 555 899 q 473 853 506 853 z "},"_":{"ha":714,"x_min":0,"x_max":612,"o":"m 83 -41 q 46 -37 52 -41 q 12 -8 24 -26 q 0 33 0 11 q 8 66 0 50 q 38 97 17 86 q 100 113 58 107 q 270 131 199 125 q 423 136 340 136 q 530 134 511 136 q 564 125 549 133 q 612 46 612 100 q 557 -31 612 -3 q 536 -37 548 -35 q 498 -39 525 -39 l 277 -37 q 214 -37 243 -37 q 152 -39 186 -38 q 83 -41 117 -40 z "},"`":{"ha":377,"x_min":0,"x_max":275,"o":"m 210 890 l 208 890 q 190 893 199 890 q 172 900 180 896 q 156 912 164 904 q 133 941 147 921 q 92 1003 119 962 q 0 1173 0 1136 q 23 1230 2 1208 q 71 1251 43 1251 q 109 1240 90 1251 q 168 1170 129 1227 q 241 1050 207 1114 q 275 960 275 986 q 257 912 275 932 q 210 890 238 892 z "},"a":{"ha":962,"x_min":0,"x_max":772,"o":"m 294 -33 q 127 31 205 -33 q 0 374 0 136 q 23 564 0 472 q 58 662 35 608 q 103 755 80 716 q 237 899 160 848 q 397 949 314 949 q 431 947 414 949 q 602 827 534 930 l 621 798 q 636 895 627 865 q 669 937 646 926 q 701 945 685 945 q 753 913 730 945 q 763 869 760 907 q 768 738 766 831 q 772 45 770 555 q 744 -8 764 12 q 685 -32 724 -28 q 651 -23 668 -32 q 601 48 611 -5 q 587 216 590 100 q 506 89 550 146 q 419 3 463 32 q 294 -33 363 -33 m 313 155 q 350 169 330 155 q 398 215 370 182 q 450 281 427 248 q 543 477 488 340 q 564 535 557 513 q 571 574 571 556 q 559 634 571 599 q 527 714 547 677 q 480 773 507 751 q 421 796 454 796 q 316 743 366 796 q 236 602 267 690 q 205 406 205 513 q 262 184 205 233 q 313 155 288 155 z "},"b":{"ha":1021,"x_min":0,"x_max":831,"o":"m 205 -50 q 13 28 45 -50 q 3 63 7 43 q 0 128 0 84 q 15 494 0 222 q 23 823 18 554 q 33 1182 30 1163 q 106 1243 53 1243 q 175 1204 157 1242 q 188 1146 182 1191 q 199 988 193 1101 q 207 856 205 881 q 210 838 208 844 l 210 835 l 226 846 q 328 892 266 876 q 448 908 389 908 q 517 901 486 908 q 819 562 748 838 q 831 456 831 513 q 817 341 831 393 q 560 26 752 132 q 399 -27 500 -5 q 205 -50 298 -50 m 226 149 q 298 163 243 149 q 380 190 336 172 q 458 227 425 208 q 530 286 495 250 q 609 463 609 368 q 602 521 609 490 q 481 712 570 665 q 400 732 439 732 q 308 706 351 732 q 232 639 265 680 l 215 617 l 215 386 q 216 222 215 290 q 218 152 216 155 q 226 149 219 149 z "},"c":{"ha":876,"x_min":0,"x_max":719,"o":"m 376 -76 q 218 -33 302 -76 q 22 194 69 43 q 0 341 0 265 q 55 600 0 472 q 200 814 110 727 q 437 915 309 915 q 583 873 519 915 q 652 800 629 842 q 679 711 679 746 q 663 669 679 684 q 625 654 647 654 q 562 699 594 654 q 527 737 543 727 q 487 747 511 747 q 425 738 450 747 q 373 703 400 729 q 306 612 338 671 q 252 482 273 553 q 231 345 231 411 q 300 188 231 235 q 372 154 340 161 q 454 145 404 146 q 509 154 488 145 q 556 186 531 163 q 604 220 582 209 q 638 228 622 228 q 694 203 670 228 q 719 140 718 179 q 650 21 719 80 q 482 -66 582 -39 q 434 -73 464 -71 q 376 -76 404 -76 z "},"d":{"ha":1016,"x_min":0,"x_max":826,"o":"m 357 -77 q 154 20 252 -77 q 38 194 75 100 q 0 387 0 288 q 123 751 0 575 q 404 911 235 911 q 502 893 463 911 q 593 838 541 876 l 595 876 q 608 1154 602 1128 q 616 1177 610 1166 q 652 1221 629 1205 q 705 1236 676 1236 q 744 1224 722 1236 q 778 1196 767 1211 q 791 1171 786 1184 q 822 473 810 1120 q 826 117 826 229 q 825 65 826 73 q 806 14 821 37 q 768 -23 792 -9 q 709 -38 744 -38 q 658 -27 681 -38 q 623 1 640 -18 q 602 33 606 20 q 597 43 600 43 q 559 10 595 43 q 357 -77 462 -77 m 403 140 q 479 166 441 140 q 546 228 516 192 q 591 296 575 264 l 591 606 l 585 617 q 566 653 576 636 q 531 694 555 669 q 429 743 483 743 q 375 731 402 743 q 334 703 349 719 q 258 569 286 649 q 230 406 230 489 q 262 256 230 326 q 364 149 294 186 q 403 140 383 140 z "},"e":{"ha":1053,"x_min":0,"x_max":863,"o":"m 481 -75 q 277 -35 377 -75 q 120 72 181 6 q 29 218 58 137 q 0 386 0 300 q 77 671 0 534 q 290 879 153 807 q 481 924 386 924 q 642 890 574 924 q 747 797 710 855 q 783 666 783 738 l 783 659 q 776 589 783 619 q 744 518 769 559 q 619 399 702 451 q 436 323 536 347 q 378 316 413 319 q 313 313 342 313 q 266 317 277 313 q 257 318 260 318 q 252 316 252 318 q 309 212 252 265 q 498 131 395 131 q 599 152 549 131 q 695 216 650 172 q 748 260 730 250 q 789 271 766 271 q 843 248 822 271 q 863 193 863 226 q 861 170 863 182 q 722 -13 830 50 q 481 -75 613 -75 m 271 467 q 323 471 292 467 q 375 479 353 474 q 457 511 412 489 q 534 555 503 533 q 583 607 566 581 q 600 659 600 634 q 564 712 600 692 q 490 725 532 725 q 386 697 432 725 q 308 623 340 669 q 258 524 275 578 q 245 477 245 487 q 247 471 245 473 q 271 467 250 467 z "},"f":{"ha":711,"x_min":0,"x_max":707,"o":"m 130 -65 q 58 -37 90 -65 q 17 39 26 -9 q 0 398 0 137 q 17 655 0 503 q 72 951 33 808 q 176 1171 111 1095 q 294 1257 229 1227 q 448 1289 359 1286 q 620 1219 545 1289 q 705 1044 694 1149 l 707 1025 q 704 1011 707 1016 q 694 999 701 1006 q 675 984 685 987 q 650 981 666 981 q 610 996 627 981 q 576 1046 593 1011 q 531 1100 558 1080 q 475 1119 505 1119 q 387 1084 425 1119 q 325 998 350 1050 q 288 893 300 947 q 276 801 276 840 q 288 795 276 795 q 347 802 302 795 q 459 814 428 813 q 535 785 506 814 q 564 718 564 755 q 533 649 564 683 q 508 629 521 635 q 465 621 495 623 q 241 619 439 621 l 236 577 q 233 442 233 541 q 241 160 233 273 q 247 47 247 81 q 246 32 247 36 q 205 -38 239 -11 q 130 -65 172 -65 z "},"g":{"ha":937,"x_min":0,"x_max":747,"o":"m 335 -745 q 320 -744 326 -745 q 306 -742 313 -743 q 289 -739 299 -740 q 221 -715 258 -733 q 157 -673 184 -696 q 64 -561 96 -620 q 31 -452 31 -503 q 59 -374 31 -406 q 119 -342 86 -342 q 166 -363 146 -342 q 188 -422 186 -383 q 192 -446 189 -436 q 203 -467 195 -456 q 238 -507 216 -487 q 277 -533 260 -526 q 332 -545 307 -545 q 420 -504 385 -545 q 477 -397 456 -463 q 510 -254 499 -331 q 525 -103 521 -178 q 528 28 528 -28 l 527 123 l 503 96 q 398 21 456 47 q 280 -5 340 -5 q 105 68 182 -5 q 24 201 47 123 q 0 371 0 278 q 46 631 0 503 q 175 833 92 759 q 336 897 247 892 q 424 877 376 897 q 511 822 471 857 q 548 792 544 792 l 557 817 q 593 867 569 850 q 646 885 618 885 q 706 861 680 885 q 733 793 733 838 l 736 665 q 747 26 747 172 q 745 -110 747 -51 q 738 -235 743 -169 q 727 -349 734 -304 q 708 -433 720 -394 q 372 -743 618 -719 q 335 -745 350 -745 m 292 220 q 342 240 313 220 q 404 315 372 261 q 448 398 423 347 q 493 496 473 449 q 514 562 512 543 q 493 611 514 581 q 444 667 473 642 q 361 708 399 708 q 299 679 326 708 q 255 604 273 650 q 229 502 238 557 q 220 395 220 447 q 239 267 220 313 q 292 220 258 220 z "},"h":{"ha":949,"x_min":0,"x_max":760,"o":"m 118 -109 q 71 -101 92 -109 q 34 -72 52 -92 q 8 -31 15 -51 q 3 41 4 -18 q 0 229 1 100 q 10 552 0 351 l 22 822 q 38 1130 31 1046 q 51 1203 43 1179 q 75 1241 60 1228 q 126 1261 100 1261 q 163 1250 146 1261 q 200 1196 191 1232 q 220 879 210 1160 q 229 691 228 694 q 260 718 233 691 q 482 827 370 827 q 612 785 549 827 q 746 542 714 723 q 756 428 753 505 q 760 266 760 350 q 749 40 760 98 q 704 -41 737 -12 q 631 -70 671 -70 q 562 -42 595 -70 q 526 6 534 -18 q 519 73 519 28 q 522 197 519 121 q 526 353 526 287 q 508 549 526 486 q 454 612 490 612 q 320 496 406 612 q 248 338 271 431 q 239 295 241 313 q 235 241 236 276 q 234 126 234 206 l 233 45 q 229 -27 233 -12 q 199 -77 222 -54 q 163 -102 182 -93 q 118 -109 144 -109 z "},"i":{"ha":444,"x_min":-33,"x_max":322,"o":"m 139 816 q 66 860 93 842 q 6 918 31 884 q -33 1032 -33 972 q -1 1115 -33 1082 q 58 1143 29 1143 q 141 1091 102 1143 q 179 1123 153 1112 q 231 1135 204 1135 q 272 1127 253 1135 q 304 1101 292 1119 q 322 1039 322 1072 q 308 976 322 1005 q 237 885 286 932 q 139 816 188 839 m 116 -51 q 37 -14 71 -51 q 11 22 19 3 q 5 48 7 31 q 4 140 4 66 q 19 576 4 459 q 31 661 26 631 q 43 706 36 690 q 62 734 50 721 q 141 770 96 770 q 203 748 176 770 q 231 689 229 726 q 235 391 233 494 q 238 159 238 257 q 236 68 238 97 q 170 -38 229 -9 q 116 -51 144 -51 z "},"j":{"ha":370,"x_min":-536,"x_max":273,"o":"m 90 758 q 16 802 43 784 q -71 914 -46 845 q -83 975 -83 944 q -51 1057 -83 1024 q 8 1086 -20 1086 q 92 1033 53 1086 q 130 1065 104 1053 q 182 1077 155 1077 q 255 1043 231 1077 q 273 981 273 1014 q 259 918 273 947 q 187 827 236 873 q 90 758 138 781 m -222 -764 q -309 -753 -264 -764 q -420 -699 -368 -739 q -504 -605 -471 -659 q -536 -496 -536 -551 q -511 -412 -536 -449 q -446 -373 -486 -375 q -382 -455 -388 -373 q -377 -484 -381 -474 q -362 -509 -374 -494 q -252 -564 -320 -564 q -156 -539 -203 -564 q -75 -477 -109 -514 q -7 -224 -22 -415 q 12 388 3 -68 q 14 514 13 465 q 16 592 15 563 q 18 635 16 621 q 22 656 20 650 q 26 669 24 663 q 85 711 50 711 q 117 702 101 711 q 146 671 137 692 q 161 604 156 650 q 184 297 176 494 q 192 -77 192 100 q 181 -350 192 -264 q 134 -506 168 -432 q 48 -638 100 -581 q -73 -730 -4 -696 q -222 -764 -141 -764 z "},"k":{"ha":900,"x_min":0,"x_max":762,"o":"m 113 -95 q 67 -83 91 -95 q 32 -58 43 -71 q 7 -20 18 -45 l 0 -6 l 0 277 q 3 601 0 465 q 16 918 7 736 q 26 1081 22 1025 q 39 1160 31 1136 q 62 1195 47 1183 q 112 1216 86 1216 q 165 1190 140 1216 q 185 1153 178 1178 q 198 1070 193 1128 q 209 897 203 1011 q 220 690 215 765 l 222 642 q 412 854 323 758 q 530 972 501 951 q 596 998 566 998 q 634 988 620 997 q 661 957 649 979 q 669 925 669 941 q 648 870 669 900 q 581 800 627 841 q 511 731 545 767 q 461 680 486 705 l 475 648 q 540 528 490 618 q 644 343 590 437 q 721 209 697 250 q 762 102 762 144 q 735 32 762 60 q 670 4 708 4 q 620 17 645 4 q 577 52 595 31 q 542 112 559 74 l 486 236 q 359 524 381 470 q 342 562 344 560 q 324 546 340 562 q 229 449 313 536 l 231 283 q 234 98 234 176 q 232 22 234 48 q 224 -17 229 -3 q 210 -44 219 -31 q 166 -81 193 -67 q 113 -95 140 -95 z "},"l":{"ha":422,"x_min":0,"x_max":233,"o":"m 118 -81 q 96 -79 110 -81 q 59 -64 83 -77 q 3 15 14 -37 q 0 113 0 32 q 15 770 0 313 q 28 1107 24 1029 q 46 1222 35 1204 q 76 1251 57 1241 q 115 1261 94 1261 q 164 1241 144 1261 q 193 1180 185 1221 q 207 946 199 1139 q 223 514 216 754 q 233 89 230 274 q 230 18 233 42 q 220 -19 227 -5 q 199 -45 212 -32 q 157 -73 178 -65 q 118 -81 135 -81 z "},"m":{"ha":1449,"x_min":0,"x_max":1259,"o":"m 111 -87 q 39 -59 70 -87 q 0 49 0 -21 q 18 382 0 96 q 32 692 27 527 q 49 966 39 920 l 54 980 q 131 1039 79 1039 q 178 1023 156 1039 q 210 976 200 1006 q 226 811 216 949 q 231 772 229 772 q 252 793 235 772 q 397 941 321 885 q 533 998 473 998 q 626 964 581 998 q 699 858 671 930 l 713 823 l 730 848 q 789 911 753 880 q 979 994 882 994 q 1171 876 1103 994 q 1243 646 1225 783 q 1259 327 1259 513 q 1256 159 1259 243 q 1251 67 1253 98 q 1246 22 1249 36 q 1239 -1 1244 8 q 1137 -73 1206 -73 q 1040 -12 1074 -73 l 1027 12 l 1029 163 l 1029 339 q 1025 576 1029 507 l 1025 585 q 1002 760 1022 692 q 958 808 987 806 q 848 721 905 808 q 751 490 791 633 q 742 449 745 467 q 738 399 739 431 q 736 300 737 367 q 729 122 734 186 q 713 27 724 59 q 682 -23 703 -4 q 613 -54 650 -54 q 564 -39 587 -54 q 526 3 541 -25 l 513 29 l 515 83 q 524 213 518 170 q 533 364 530 257 q 537 575 537 471 q 531 746 537 687 q 498 806 525 806 q 451 774 480 806 q 376 678 421 742 q 250 345 290 557 q 236 176 240 304 q 219 -3 233 46 q 166 -73 205 -53 q 111 -87 139 -87 z "},"n":{"ha":1042,"x_min":0,"x_max":852,"o":"m 118 -68 q 51 -46 81 -68 q 6 20 20 -25 q 3 40 4 27 q 1 78 1 52 q 0 151 0 103 q 9 776 2 581 q 41 1014 17 971 q 76 1052 54 1039 q 123 1065 99 1065 q 180 1044 154 1065 q 195 1024 190 1036 q 201 992 199 1013 q 205 933 203 971 q 215 768 207 878 q 306 900 259 848 q 430 989 353 951 q 562 1024 499 1024 q 694 979 637 1024 q 789 836 751 933 q 844 585 826 739 q 852 366 852 494 q 847 175 852 264 q 835 54 843 85 q 807 8 827 30 q 765 -23 787 -14 q 726 -30 746 -30 q 672 -16 698 -30 q 629 25 646 -1 q 615 60 619 41 q 610 113 610 79 q 612 180 610 138 q 616 355 616 250 q 609 612 616 543 l 606 643 q 589 760 601 718 q 532 822 572 822 q 503 814 519 822 q 427 753 459 795 q 359 630 395 712 q 253 285 288 473 q 242 215 245 249 q 237 123 239 181 q 235 57 236 80 q 231 22 233 34 q 224 2 229 10 q 180 -50 209 -31 q 118 -68 151 -68 z "},"o":{"ha":886,"x_min":0,"x_max":696,"o":"m 310 -54 q 259 -50 280 -54 q 16 241 77 0 q 0 409 0 319 q 4 488 0 452 q 97 773 26 650 q 271 949 169 897 q 397 979 334 979 q 533 941 469 979 q 635 831 597 903 q 696 533 696 713 q 686 386 695 448 q 652 257 676 325 q 533 52 608 132 q 367 -49 458 -28 q 310 -54 341 -54 m 322 177 q 426 261 368 177 q 515 572 515 389 q 497 726 515 664 q 424 805 475 805 q 381 793 406 805 q 269 644 317 757 q 236 530 247 590 q 225 413 225 471 q 241 286 225 344 q 287 195 256 228 q 322 177 304 177 z "},"p":{"ha":1018,"x_min":0,"x_max":828,"o":"m 113 -690 q 87 -687 99 -690 q 6 -604 26 -665 q 3 -588 4 -598 q 1 -558 1 -578 q 0 -503 0 -539 q 4 -162 0 -411 q 41 865 16 770 q 127 937 60 930 q 168 926 147 937 q 201 896 189 915 l 213 876 l 258 897 q 463 943 355 943 q 595 918 538 943 q 699 849 651 894 q 817 632 790 766 q 828 494 828 572 q 820 372 828 426 q 684 81 787 203 q 439 -78 581 -41 q 335 -90 387 -90 q 294 -89 307 -90 q 265 -85 281 -87 l 237 -80 l 235 -355 q 231 -583 235 -545 q 223 -621 229 -609 q 208 -644 218 -633 l 205 -648 q 164 -679 190 -667 q 113 -690 138 -690 m 267 106 q 349 117 309 106 q 490 198 429 136 q 606 437 581 290 q 612 524 612 477 q 599 639 612 593 q 418 771 550 771 q 363 765 393 771 q 314 753 334 760 q 280 736 299 747 q 247 716 262 726 q 231 701 233 706 q 230 680 230 698 q 232 579 230 650 q 236 309 236 451 q 237 110 236 149 q 267 106 250 106 z "},"q":{"ha":1007,"x_min":0,"x_max":817,"o":"m 675 -770 q 656 -767 665 -770 q 603 -735 620 -755 q 570 -676 586 -714 l 572 84 l 547 52 q 283 -69 454 -66 q 154 -35 208 -69 q 66 56 100 -1 q 16 180 32 112 q 0 315 0 248 q 6 439 0 387 q 29 557 13 492 q 230 918 91 812 q 428 993 321 993 q 535 972 488 993 q 629 905 582 951 l 669 865 q 700 893 686 883 q 737 903 714 903 q 774 893 755 903 q 805 866 793 884 q 817 821 817 848 q 812 766 817 804 q 801 667 805 715 q 791 336 795 591 q 785 -227 785 -26 l 786 -583 q 784 -668 786 -641 q 776 -706 782 -694 q 760 -729 770 -718 q 719 -759 742 -749 q 675 -770 696 -770 m 307 130 q 376 146 339 130 q 419 179 399 157 q 461 236 438 201 q 499 298 485 271 q 545 408 519 340 q 595 549 571 477 l 587 591 q 556 735 572 689 q 495 800 539 781 q 444 814 469 814 q 342 758 395 814 q 256 598 286 704 q 223 460 230 516 q 217 333 217 409 q 220 251 217 288 q 280 135 227 166 q 307 130 290 130 z "},"r":{"ha":903,"x_min":0,"x_max":800,"o":"m 115 -71 q 8 -1 46 -71 l 6 2 q 1 20 3 7 q 0 87 0 35 l 3 521 q 18 920 4 849 q 53 973 26 953 q 110 993 80 993 q 142 985 127 993 q 189 932 179 968 q 202 826 199 897 l 202 821 l 235 854 q 517 978 355 977 q 657 949 582 978 q 800 797 800 897 q 771 729 800 758 q 705 701 742 701 q 613 735 667 701 q 492 777 540 777 q 371 719 429 772 q 283 591 313 666 q 244 433 256 522 q 232 185 233 345 q 230 79 231 117 q 226 20 229 40 q 216 -10 223 1 q 197 -34 210 -21 q 115 -71 161 -71 z "},"s":{"ha":949,"x_min":0,"x_max":775,"o":"m 336 -58 q 221 -40 276 -58 q 104 21 166 -21 q 0 174 0 90 q 31 254 0 220 q 102 287 62 287 q 127 283 115 287 q 163 260 146 276 q 186 229 180 244 q 194 215 189 220 q 214 204 200 210 q 344 175 278 175 q 435 193 390 175 q 533 271 533 237 q 496 311 533 294 q 403 342 458 328 q 290 367 348 355 q 144 404 191 385 q 27 550 45 451 q 25 576 25 563 q 64 709 25 638 q 167 842 104 779 q 303 944 230 904 q 444 984 376 984 q 550 957 498 984 q 601 917 577 943 q 635 866 625 891 q 646 808 646 837 q 629 741 646 768 q 584 714 612 714 q 527 781 532 714 q 512 811 524 802 q 473 821 500 819 q 401 801 443 821 q 316 739 359 781 q 232 617 232 656 q 252 584 232 596 q 306 563 271 572 q 435 538 353 551 q 553 515 494 530 q 663 473 612 501 q 744 394 713 445 q 775 259 775 343 q 705 86 775 159 q 541 -18 645 22 q 336 -58 436 -58 z "},"t":{"ha":545,"x_min":-85,"x_max":407,"o":"m 260 -18 q 87 102 149 -18 q 55 190 71 136 q 28 296 38 243 q 18 524 18 373 q 33 888 18 712 l 36 912 q 39 954 39 941 q 33 972 39 969 q 10 975 26 975 q -67 988 -48 977 q -85 1029 -85 1000 q -82 1046 -85 1040 q -72 1060 -79 1053 q -59 1070 -65 1067 q -41 1074 -53 1073 l 48 1078 l 50 1086 q 54 1134 54 1104 q 75 1248 54 1211 q 103 1274 85 1262 q 136 1285 122 1285 q 169 1276 151 1284 q 197 1255 186 1267 q 231 1095 222 1221 q 236 1080 232 1083 q 256 1078 240 1078 q 322 1084 274 1078 q 368 1090 354 1090 q 397 1078 388 1090 q 407 1052 407 1065 q 394 1020 407 1036 q 357 996 380 1004 q 255 979 324 985 l 238 977 l 241 710 q 248 449 243 535 q 262 319 252 363 q 289 228 271 275 l 298 201 l 316 199 q 374 166 353 193 q 395 104 395 140 q 378 45 395 73 q 330 0 361 18 q 260 -18 300 -18 z "},"u":{"ha":1019,"x_min":0,"x_max":808,"o":"m 287 -41 q 239 -37 260 -41 q 177 -9 211 -31 q 117 37 142 12 q 45 152 71 81 q 0 511 0 280 q 7 692 0 610 q 20 796 11 736 q 39 909 29 857 q 54 983 48 962 q 88 1035 66 1016 q 136 1054 111 1054 q 171 1044 154 1054 q 197 1022 188 1034 q 212 988 205 1009 q 216 963 215 978 q 218 911 218 947 l 215 690 q 260 239 215 372 q 313 176 283 176 q 368 204 334 176 q 429 274 401 232 q 499 412 458 321 q 610 713 580 589 q 633 844 625 772 q 650 958 644 927 q 728 1030 665 1030 q 751 1027 744 1030 q 770 1014 759 1024 q 793 983 789 996 q 800 927 798 970 q 806 496 804 852 q 808 85 808 114 q 806 54 808 66 q 797 29 804 42 q 694 -38 763 -38 q 615 0 646 -38 q 585 52 592 25 q 576 127 578 79 l 573 164 l 553 132 q 350 -35 472 1 q 287 -41 321 -41 z "},"v":{"ha":935,"x_min":0,"x_max":877,"o":"m 437 -36 q 372 -10 401 -36 q 322 56 342 16 q 269 173 302 96 q 206 329 237 250 l 157 456 q 74 681 119 555 q 16 846 36 785 q 0 922 0 892 q 35 987 0 966 q 50 995 43 992 q 66 997 56 997 q 116 988 96 996 q 155 949 135 979 q 261 750 189 897 q 404 440 333 603 q 452 332 446 340 q 554 558 462 338 q 686 890 647 779 q 714 964 709 954 q 749 1001 726 985 q 793 1016 773 1016 q 851 991 825 1016 q 877 934 877 966 q 870 900 877 918 q 848 841 864 881 q 768 640 823 784 l 645 315 q 570 109 591 176 q 534 12 543 27 q 518 -6 527 1 q 437 -36 479 -36 z "},"w":{"ha":1344,"x_min":0,"x_max":1175,"o":"m 806 -37 q 778 -36 792 -37 q 753 -31 763 -34 q 678 6 715 -20 q 615 66 641 33 q 574 134 593 96 q 543 205 555 172 l 521 159 q 279 -33 429 -33 q 136 24 200 -33 q 33 184 71 81 q 7 286 14 236 q 0 433 0 336 q 11 628 0 515 q 36 834 21 741 q 65 963 51 928 q 100 1004 77 990 q 147 1018 123 1018 q 211 988 182 1018 q 223 971 218 980 q 229 949 227 963 q 231 907 231 935 q 227 766 231 863 q 220 511 220 625 q 230 317 220 378 q 254 239 237 277 q 281 188 269 204 q 306 171 293 171 q 377 238 334 171 q 464 433 420 304 q 493 530 483 490 q 512 621 504 570 q 530 758 520 671 q 554 935 549 914 q 574 974 559 956 q 629 1001 598 1001 q 692 961 667 1001 q 696 949 695 956 q 701 884 700 936 q 703 696 702 839 q 708 444 705 489 q 742 292 713 382 q 774 210 760 235 q 831 166 800 166 q 945 275 882 166 q 1003 442 983 343 q 1023 653 1023 541 q 1010 837 1023 717 q 1002 947 1003 899 q 1004 969 1002 962 q 1014 985 1007 977 q 1067 1013 1038 1013 q 1103 1002 1086 1013 q 1156 865 1142 983 q 1171 747 1166 791 q 1175 659 1175 703 l 1173 598 q 1139 317 1170 435 q 1042 103 1107 200 q 935 -1 997 35 q 806 -37 873 -37 z "},"x":{"ha":952,"x_min":0,"x_max":807,"o":"m 68 -9 q 18 11 35 -9 q 0 59 0 31 l 0 64 q 3 89 0 77 q 21 129 6 102 q 71 209 36 156 q 167 355 105 262 q 252 486 218 431 q 287 543 287 541 q 248 600 287 547 q 161 718 210 653 q 77 826 113 782 q 38 880 48 862 q 27 914 27 897 q 71 984 28 964 q 104 993 87 993 q 174 958 134 993 q 347 773 220 918 q 389 722 382 732 l 397 713 l 452 788 q 606 1000 547 930 q 682 1040 640 1040 q 739 1017 711 1040 q 773 954 768 995 l 774 941 q 720 838 774 903 q 575 654 633 734 q 517 559 517 574 q 549 508 519 550 q 616 415 579 466 q 740 240 648 370 q 807 88 807 151 q 783 28 807 56 q 722 1 759 1 q 667 20 695 1 q 596 93 639 39 q 446 304 549 153 q 393 381 399 376 q 357 336 389 380 q 141 34 330 299 q 104 -1 121 7 q 68 -9 87 -9 z "},"y":{"ha":1026,"x_min":0,"x_max":823,"o":"m 372 -692 q 325 -688 349 -692 q 202 -636 264 -678 q 97 -536 140 -594 q 54 -427 54 -479 q 73 -374 54 -393 q 121 -353 92 -354 q 182 -388 160 -353 q 227 -440 199 -413 q 276 -476 256 -467 q 334 -486 297 -486 q 372 -483 359 -486 q 408 -469 385 -480 q 578 -168 538 -412 q 595 -23 591 -90 q 601 155 599 44 l 602 233 q 543 137 562 163 q 483 69 520 104 q 398 12 441 29 q 302 -6 356 -6 q 144 46 212 -6 q 41 191 75 98 q 0 455 0 313 q 71 836 0 646 q 113 912 91 889 q 165 936 135 936 q 205 926 190 935 q 231 895 220 918 q 238 866 238 881 q 220 753 238 846 q 207 554 207 682 q 213 433 207 484 q 285 222 238 263 q 321 209 303 209 q 388 243 351 209 q 538 521 463 306 q 580 650 568 602 q 592 738 592 699 q 596 831 592 777 q 606 906 601 884 q 637 954 615 938 q 685 970 660 970 q 721 961 703 970 q 759 903 753 943 q 764 840 762 884 q 791 524 772 708 q 823 43 823 245 q 764 -374 823 -230 q 701 -492 739 -435 q 612 -593 663 -548 q 500 -665 561 -638 q 372 -692 439 -692 z "},"z":{"ha":977,"x_min":0,"x_max":830,"o":"m 164 -71 q 44 -42 87 -71 q 0 52 2 -14 q 23 140 0 88 q 107 293 47 193 q 292 577 198 444 q 498 852 387 710 q 165 869 257 858 q 81 897 107 878 q 54 951 54 916 q 75 998 54 979 q 131 1019 95 1017 q 269 1026 167 1022 q 481 1033 372 1029 q 635 1036 591 1036 q 688 1035 670 1036 q 714 1030 705 1034 q 733 1020 724 1027 q 777 937 777 984 q 768 901 777 921 q 732 845 759 882 q 525 568 602 676 q 332 269 426 429 q 260 142 260 149 l 267 142 q 455 146 295 142 q 688 151 648 151 q 732 150 717 151 q 754 147 747 149 q 769 141 762 144 q 830 57 830 111 q 796 -10 830 18 q 706 -45 762 -38 q 319 -64 637 -52 q 178 -71 191 -69 l 164 -71 z "},"{":{"ha":552,"x_min":0,"x_max":450,"o":"m 296 -74 q 227 -58 264 -74 q 161 -15 191 -42 q 88 118 113 34 q 82 151 84 134 q 79 202 79 168 q 77 302 78 236 q 75 423 77 385 q 64 480 73 461 q 37 522 56 498 q 8 566 16 550 q 0 598 0 582 q 16 646 0 627 q 73 685 31 665 q 126 717 109 702 q 154 757 142 732 q 171 821 171 789 q 164 865 171 841 l 138 958 q 118 1086 118 1028 q 144 1205 118 1152 q 213 1281 167 1252 q 307 1311 259 1311 q 378 1295 342 1311 q 450 1216 450 1263 q 434 1178 450 1196 q 397 1160 417 1160 q 366 1166 387 1160 q 323 1173 340 1173 q 287 1154 300 1173 q 271 1102 271 1137 q 304 955 271 1053 q 321 897 316 918 q 328 859 327 876 q 330 820 330 843 l 330 802 q 328 771 330 784 q 319 739 326 758 q 212 581 284 627 q 191 564 191 566 q 203 536 191 559 q 223 473 218 510 q 229 366 229 436 q 235 211 229 262 q 254 136 241 160 q 288 90 267 112 l 298 94 q 316 102 309 100 q 336 104 324 104 q 381 83 363 104 q 399 28 399 62 q 328 -68 397 -42 q 296 -74 314 -74 z "},"|":{"ha":283,"x_min":0,"x_max":181,"o":"m 102 -1 l 94 -1 q 42 20 63 -1 q 14 69 20 41 q 7 246 11 95 q 2 598 4 397 q 0 960 0 799 q 1 1135 0 1075 q 5 1220 2 1194 q 16 1254 9 1245 q 75 1289 40 1289 q 120 1269 100 1289 q 146 1213 140 1249 q 167 734 151 1154 q 178 253 173 569 l 181 85 q 158 27 180 51 q 102 -1 136 3 z "},"}":{"ha":552,"x_min":0,"x_max":450,"o":"m 154 -74 q 122 -68 136 -74 q 51 30 52 -41 q 69 84 51 63 q 113 104 87 104 q 133 102 125 104 q 151 94 141 100 l 162 90 q 196 136 183 111 q 215 213 209 161 q 222 366 221 264 q 227 473 222 436 q 247 536 233 510 q 258 564 258 561 q 238 581 258 567 q 131 739 165 627 q 122 770 125 758 q 119 800 119 783 l 120 827 q 122 863 121 848 q 129 899 123 878 q 146 955 134 919 q 179 1101 179 1052 q 163 1154 179 1137 q 127 1173 150 1173 q 85 1166 111 1173 q 54 1160 64 1160 q 17 1177 34 1160 q 0 1216 0 1194 q 73 1295 0 1263 q 142 1311 108 1311 q 237 1281 191 1311 q 332 1087 332 1221 q 312 958 332 1029 q 288 876 298 911 q 279 821 279 841 q 296 757 279 789 q 324 717 307 732 q 376 685 340 702 q 434 646 418 665 q 450 600 450 627 q 443 567 450 583 q 412 522 435 551 q 386 480 394 498 q 375 423 377 461 q 372 302 373 385 q 371 202 372 236 q 368 151 370 168 q 361 118 366 134 q 288 -15 337 34 q 222 -58 259 -42 q 154 -74 186 -74 z "},"~":{"ha":667,"x_min":0,"x_max":566,"o":"m 376 420 q 306 431 354 420 q 212 457 258 441 q 138 473 166 473 q 83 461 120 473 q 45 452 60 452 q 13 467 26 452 q 0 498 0 481 q 44 576 0 536 q 150 627 87 616 q 170 629 159 629 q 217 625 192 629 q 263 614 243 621 q 397 584 345 584 q 479 607 444 584 q 516 618 499 618 q 552 603 538 618 q 566 560 566 587 q 525 475 566 514 q 406 422 484 435 q 376 420 390 420 z "},"¡":{"ha":458,"x_min":0,"x_max":356,"o":"m 172 -64 q 121 -45 144 -64 q 87 6 98 -27 q 66 358 72 70 q 62 673 62 522 q 71 962 62 935 q 119 1024 87 1003 q 186 1044 151 1044 q 216 1040 203 1044 q 292 966 275 1019 q 298 819 298 937 q 293 524 298 696 q 279 209 287 351 q 261 20 271 67 q 226 -44 251 -24 q 172 -64 201 -64 m 265 1076 q 181 1129 220 1076 q 144 1096 169 1108 q 91 1084 119 1084 q 51 1093 70 1084 q 18 1118 31 1101 q 0 1181 0 1148 q 14 1244 0 1215 q 86 1334 37 1288 q 184 1404 135 1381 q 258 1360 231 1378 q 345 1248 319 1317 q 356 1187 356 1218 q 324 1105 356 1138 q 265 1076 294 1076 z "},"¢":{"ha":635,"x_min":0,"x_max":533,"o":"m 58 37 q 38 42 48 37 q 23 59 28 47 q 17 81 17 70 q 25 111 17 92 q 53 176 33 131 l 86 252 q 41 328 56 299 q 0 511 0 409 q 14 629 0 577 q 153 843 63 770 q 347 919 243 916 l 386 920 l 427 1013 q 448 1054 436 1036 q 483 1073 460 1073 q 508 1066 494 1073 q 528 1050 522 1059 q 533 1031 533 1041 q 528 1006 533 1019 q 516 980 523 993 l 472 884 l 485 873 q 515 829 504 857 q 526 778 526 802 q 510 736 526 749 q 478 722 494 722 q 446 734 458 722 q 419 770 433 746 l 324 557 q 244 373 244 381 q 258 354 244 364 q 292 336 273 343 q 326 329 311 329 q 367 336 339 329 q 438 349 413 349 q 476 339 461 349 q 497 313 490 328 q 504 283 504 298 q 480 228 504 254 q 396 179 456 203 q 281 153 332 153 q 197 172 239 153 q 162 185 170 183 q 123 114 155 184 q 112 91 115 96 q 106 80 109 86 q 58 37 85 37 m 195 495 l 196 496 l 288 700 q 314 760 305 738 l 294 746 q 219 652 249 713 q 189 526 190 591 q 190 504 189 513 q 195 495 192 495 z "},"£":{"ha":857,"x_min":0,"x_max":755,"o":"m 252 -6 q 153 -2 186 -6 q 6 99 40 18 q 0 150 0 116 q 15 207 0 177 q 75 307 29 237 q 212 572 212 515 q 211 579 212 575 q 208 586 210 583 q 198 590 205 588 q 175 592 191 591 q 132 595 159 593 q 42 608 56 601 q 8 659 8 629 q 23 696 8 678 q 114 722 41 722 q 136 723 130 722 q 142 727 142 724 q 136 744 141 731 q 119 791 132 756 q 101 855 104 832 q 97 922 98 878 q 104 987 97 960 q 129 1057 111 1015 q 379 1299 211 1236 q 422 1311 404 1308 q 473 1314 439 1314 q 620 1281 556 1314 q 720 1200 684 1249 q 755 1098 755 1150 q 739 1051 755 1069 q 701 1032 722 1032 q 642 1082 668 1032 q 593 1128 627 1115 q 503 1143 560 1142 q 460 1135 482 1143 q 301 968 346 1094 q 292 920 292 944 q 307 849 292 886 q 351 752 321 812 l 360 732 l 509 730 q 593 729 562 730 q 640 728 624 729 q 663 724 655 726 q 679 718 671 722 q 719 657 719 699 q 678 595 719 614 q 634 586 663 588 q 538 583 605 584 l 410 581 q 398 506 406 543 q 366 415 390 469 q 288 272 341 361 q 248 198 248 203 q 661 191 257 195 l 673 184 q 712 159 699 172 q 733 119 726 146 q 736 101 736 111 q 721 56 736 77 q 682 24 707 34 q 586 9 660 16 q 420 -2 513 3 q 252 -6 327 -6 z "},"¤":{"ha":849,"x_min":0,"x_max":747,"o":"m 56 238 q 20 251 35 238 q 5 284 5 264 q 8 301 5 293 q 26 327 11 310 q 62 366 41 345 l 111 414 q 84 472 94 446 q 75 534 75 498 q 89 606 75 566 q 115 659 102 646 q 117 664 117 661 q 100 688 117 671 q 25 772 50 740 q 0 822 0 804 q 19 860 0 845 q 56 876 37 876 q 86 868 72 876 q 126 840 101 861 q 224 753 143 826 q 295 776 262 768 q 380 784 328 784 q 532 736 466 784 q 558 721 554 721 q 574 740 561 722 q 685 839 644 833 q 710 831 697 839 q 730 812 723 824 q 736 789 736 801 q 714 732 736 763 q 670 676 692 702 q 641 635 641 642 q 642 630 641 632 q 652 569 652 602 q 643 500 652 534 q 626 447 635 465 q 624 441 624 444 q 632 431 624 437 q 662 411 640 425 q 747 318 747 359 q 742 292 747 305 q 728 273 736 279 q 709 264 720 267 q 690 260 698 260 q 683 261 686 260 q 634 283 660 267 q 568 328 608 300 l 538 349 q 447 307 489 320 q 355 294 406 294 q 274 304 309 294 q 194 334 239 314 l 172 315 q 100 255 123 272 q 56 238 77 238 m 366 443 q 414 447 391 443 q 459 463 436 451 q 518 521 503 487 q 522 541 522 528 q 520 567 522 551 q 516 590 518 582 q 510 603 514 597 q 498 614 506 608 q 393 644 452 644 q 315 627 354 644 q 237 534 237 591 q 273 470 237 497 q 366 443 309 443 z "},"¥":{"ha":882,"x_min":0,"x_max":780,"o":"m 376 22 q 290 78 322 22 q 275 164 279 101 q 272 326 272 227 l 158 328 q 72 331 98 329 q 31 341 45 333 q 8 361 16 349 q 0 388 0 374 q 8 415 0 402 q 33 437 17 429 q 198 452 54 448 l 272 454 q 272 501 272 485 q 274 535 273 517 q 277 586 275 553 q 79 603 132 592 q 25 657 25 614 q 63 712 25 698 q 205 726 100 726 q 236 727 223 726 q 248 728 248 728 q 224 770 248 729 q 169 868 201 811 q 110 975 137 925 q 52 1083 82 1028 l 33 1119 q 11 1161 18 1147 q 2 1185 4 1176 q 0 1208 0 1195 q 2 1235 0 1227 q 13 1251 5 1242 q 58 1273 35 1273 q 105 1256 79 1273 q 132 1232 118 1248 q 237 1089 157 1205 q 393 864 378 882 q 427 908 398 866 q 494 1009 456 949 q 564 1122 532 1068 q 629 1215 610 1199 q 689 1239 659 1239 q 747 1215 722 1239 q 772 1154 772 1190 q 762 1111 772 1133 q 733 1065 758 1103 q 673 974 708 1027 q 602 866 637 920 q 542 773 566 812 q 518 730 518 734 q 520 727 518 728 q 593 724 522 726 q 677 720 649 723 q 755 681 734 715 q 767 644 767 663 q 744 593 767 617 q 713 574 731 580 q 648 569 696 569 q 536 572 560 570 l 461 574 l 471 460 l 604 460 q 719 458 697 460 q 748 450 740 457 q 780 393 780 429 q 741 333 780 351 q 726 327 734 329 q 668 323 713 323 l 481 323 l 478 92 l 464 69 q 426 34 450 47 q 376 22 402 22 z "},"¦":{"ha":298,"x_min":0,"x_max":196,"o":"m 95 721 q 47 736 70 721 q 12 776 24 751 q 3 826 6 788 q 0 954 0 864 q 1 1121 0 1081 q 8 1193 3 1171 q 25 1227 13 1215 q 82 1251 51 1251 q 119 1242 101 1251 q 159 1193 149 1227 q 174 1067 167 1167 l 181 987 q 193 831 193 854 q 163 752 193 783 q 95 721 134 721 m 107 18 q 48 43 73 18 q 18 95 23 68 l 22 520 q 54 574 38 556 q 106 592 69 592 q 175 545 152 592 q 196 95 191 517 q 175 60 187 77 q 146 31 163 43 q 107 18 130 18 z "},"§":{"ha":1183,"x_min":0,"x_max":1081,"o":"m 227 37 q 168 44 195 37 q 0 267 0 92 q 23 390 0 341 q 93 439 47 439 q 135 420 114 439 q 156 372 156 402 l 155 345 q 162 281 155 317 q 178 235 170 245 q 208 228 186 228 q 270 239 235 228 q 369 373 369 271 q 366 410 369 391 q 351 465 362 441 q 313 516 340 488 q 231 589 285 544 q 74 800 106 688 q 62 886 62 844 q 97 1020 62 962 q 190 1112 131 1079 q 324 1145 250 1145 q 423 1126 376 1145 q 523 1071 470 1107 l 543 1102 q 598 1168 564 1134 q 663 1220 633 1202 q 829 1264 739 1263 q 979 1200 920 1264 q 1044 1044 1044 1137 q 1028 994 1044 1013 q 989 974 1013 974 q 935 1019 949 974 q 913 1068 922 1053 q 889 1091 903 1084 q 844 1102 869 1102 q 773 1082 808 1102 q 715 1031 738 1063 q 692 967 692 1000 q 722 900 692 930 q 878 817 761 866 q 1024 712 967 781 q 1081 562 1081 644 q 1039 424 1081 488 q 922 320 996 360 q 751 280 848 280 l 744 280 q 654 290 688 280 q 574 321 621 300 l 570 322 q 538 222 558 264 q 473 136 517 180 q 434 101 451 114 q 399 80 418 89 q 227 37 306 37 m 734 463 q 845 494 800 463 q 890 559 890 526 q 886 577 890 569 q 867 599 881 585 q 837 622 852 613 q 791 643 821 631 q 636 719 692 682 q 544 811 581 757 q 440 913 498 873 q 338 954 381 954 q 311 947 323 954 q 283 929 295 941 q 271 888 271 917 q 277 842 271 859 q 303 806 284 824 q 359 758 322 787 q 506 615 460 675 q 567 543 536 576 q 615 496 597 509 q 734 463 669 463 z "},"¨":{"ha":599,"x_min":0,"x_max":497,"o":"m 393 1043 q 320 1074 347 1045 q 294 1149 294 1103 q 321 1222 294 1192 q 395 1251 348 1251 q 497 1140 497 1250 q 465 1069 494 1095 q 393 1043 435 1043 m 99 1043 q 26 1074 52 1044 q 0 1149 0 1103 q 26 1221 0 1191 q 101 1251 52 1251 q 202 1142 202 1250 q 171 1069 201 1096 q 99 1043 140 1043 z "},"©":{"ha":1223,"x_min":0,"x_max":1122,"o":"m 602 363 q 571 366 587 363 q 445 421 499 375 q 361 535 391 467 q 331 674 331 603 q 347 770 331 724 q 396 853 363 817 q 478 910 430 890 q 579 930 527 930 q 682 907 632 930 q 756 847 728 883 q 784 781 784 812 q 772 746 784 761 q 759 734 765 736 q 738 731 752 731 q 708 738 721 731 q 674 764 696 744 q 593 798 640 798 l 591 798 q 532 781 555 798 q 498 738 509 765 q 487 680 487 711 q 504 603 487 641 q 553 539 521 564 q 632 513 586 513 q 670 517 654 513 q 703 533 683 520 q 745 550 732 550 q 784 531 768 550 q 801 489 801 512 q 738 404 801 444 q 602 363 675 363 m 553 68 q 522 71 536 68 q 485 77 507 73 q 355 116 422 87 q 236 184 288 145 q 1 615 27 347 l 0 647 q 46 859 0 752 q 172 1039 93 965 q 349 1150 252 1113 q 548 1187 446 1187 q 797 1127 679 1187 q 998 961 915 1066 q 1112 722 1082 857 q 1122 599 1122 663 q 1119 540 1122 566 q 976 239 1093 363 q 684 79 859 115 q 621 72 661 75 q 553 68 581 68 m 603 212 q 666 216 637 212 q 880 325 792 240 q 995 532 968 410 q 1002 616 1002 571 q 993 712 1002 669 q 834 963 953 871 q 557 1055 716 1055 q 339 993 437 1055 q 189 821 240 930 q 163 744 170 779 q 156 650 156 708 q 158 586 156 607 q 165 543 159 564 q 221 418 184 477 q 314 312 258 359 q 442 239 370 266 q 603 212 515 212 z "},"ª":{"ha":518,"x_min":0,"x_max":416,"o":"m 347 858 q 302 877 321 858 q 279 923 284 895 l 277 939 q 224 882 255 901 q 158 862 193 862 q 62 907 104 862 q 16 980 31 939 q 0 1065 0 1021 q 30 1182 0 1124 q 67 1225 43 1204 q 111 1253 90 1246 q 155 1261 132 1261 q 276 1206 218 1261 l 278 1211 q 295 1242 283 1230 q 338 1257 307 1255 q 387 1234 368 1257 q 398 1216 394 1225 q 403 1191 401 1207 q 405 1143 404 1174 q 410 1042 406 1101 q 416 938 416 972 q 389 875 415 897 q 347 858 370 858 m 165 995 q 201 1020 182 995 q 235 1072 219 1045 q 197 1123 212 1107 q 164 1139 181 1139 q 137 1121 147 1139 q 127 1077 127 1103 q 131 1043 127 1063 q 143 1009 135 1024 q 165 995 151 995 z "},"«":{"ha":989,"x_min":0,"x_max":888,"o":"m 385 154 q 346 163 366 154 q 295 199 332 170 q 218 264 259 228 q 148 329 177 300 q 64 420 104 372 q 12 491 24 468 q 0 538 0 514 q 12 585 0 563 q 203 769 26 608 l 295 853 q 374 918 355 911 q 395 922 384 922 q 440 903 421 922 q 459 857 459 884 q 433 798 459 835 q 334 681 408 761 q 202 534 202 539 q 219 511 203 529 q 299 429 256 467 q 390 356 336 395 q 456 299 445 314 q 475 244 475 275 q 449 181 475 208 q 385 154 422 154 m 795 193 q 764 198 779 193 q 688 249 751 200 q 473 418 624 297 q 400 485 418 461 q 383 539 383 508 q 390 574 383 557 q 417 616 397 590 q 476 685 437 642 q 602 830 543 760 q 661 897 640 875 q 696 925 683 919 q 726 932 710 932 q 774 911 754 932 q 795 861 795 890 q 791 842 795 852 q 774 808 788 831 q 647 630 749 768 q 593 554 593 557 q 682 484 595 549 q 817 385 768 418 q 866 342 854 360 q 882 310 876 329 q 888 276 888 292 q 858 215 883 237 q 795 193 832 193 z "},"¬":{"ha":914,"x_min":0,"x_max":812,"o":"m 722 321 q 671 340 693 321 q 636 386 648 358 q 623 441 628 403 q 614 557 618 479 q 612 598 614 584 q 609 617 611 612 q 603 624 607 623 q 564 627 600 625 q 476 631 528 629 q 147 648 241 640 q 35 666 53 655 q 0 721 0 686 q 37 775 0 758 q 57 782 45 780 q 98 786 70 785 q 183 789 127 788 q 649 798 497 798 q 729 796 718 798 q 765 772 747 790 q 788 736 783 753 q 800 598 793 719 q 808 496 804 529 q 812 429 812 458 q 784 351 812 380 q 722 321 755 321 z "},"®":{"ha":1223,"x_min":0,"x_max":1122,"o":"m 555 53 q 401 84 492 53 q 236 168 309 115 q 1 600 27 331 l 0 631 q 46 843 0 736 q 172 1023 93 949 q 348 1134 252 1097 q 547 1172 444 1172 q 622 1166 584 1172 q 938 1011 804 1139 q 1112 706 1071 884 q 1122 583 1122 648 q 1119 524 1122 550 q 976 223 1093 347 q 684 63 859 99 q 622 56 661 59 q 555 53 583 53 m 605 195 q 666 200 638 195 q 880 309 792 224 q 995 517 968 394 q 1002 600 1002 555 q 993 696 1002 652 q 834 947 953 855 q 557 1039 716 1039 q 339 977 437 1039 q 189 805 240 915 q 163 728 170 764 q 156 634 156 692 q 158 570 156 591 q 165 528 159 549 q 250 361 191 436 q 398 241 309 286 q 605 195 488 195 m 455 338 q 420 349 437 338 q 401 365 408 356 q 392 393 395 373 q 389 454 389 413 q 388 570 388 496 q 390 750 388 685 q 395 844 391 814 q 404 880 398 873 q 479 922 425 903 q 563 942 533 942 q 626 929 592 942 q 689 893 659 917 q 738 836 719 870 q 757 759 757 802 q 754 723 757 736 q 703 639 747 688 q 656 595 675 607 q 644 585 644 587 q 702 549 644 581 q 789 495 772 511 q 810 446 810 475 q 790 403 810 420 q 746 387 770 387 q 673 420 718 387 q 615 457 650 435 q 551 497 581 479 q 520 515 522 515 q 519 477 519 515 l 519 417 q 517 387 519 395 q 509 370 515 378 q 455 338 487 338 m 509 669 l 519 672 q 548 684 535 678 q 574 699 561 689 q 605 728 590 709 q 620 756 620 747 q 607 782 620 767 q 578 806 595 797 q 528 817 558 817 l 498 817 l 503 732 q 509 669 505 697 z "},"¯":{"ha":730,"x_min":0,"x_max":629,"o":"m 537 1108 l 494 1109 q 66 1119 90 1115 q 17 1148 34 1128 q 0 1192 0 1168 q 10 1224 0 1208 q 41 1251 20 1240 q 62 1257 50 1255 q 105 1262 75 1260 q 194 1265 135 1263 q 342 1271 291 1268 q 474 1280 394 1274 q 529 1282 507 1282 q 571 1278 556 1282 q 597 1262 585 1273 q 629 1197 629 1235 q 604 1136 629 1163 q 537 1108 578 1108 z "},"°":{"ha":542,"x_min":0,"x_max":440,"o":"m 219 851 q 104 880 153 851 q 27 957 55 909 q 0 1061 0 1004 q 14 1132 0 1099 q 50 1182 26 1156 q 214 1252 113 1252 q 328 1226 277 1252 q 410 1155 380 1200 q 440 1053 440 1110 q 321 871 440 930 q 219 851 273 851 m 222 970 q 327 1031 302 970 q 332 1056 332 1044 q 298 1120 332 1093 q 225 1148 263 1148 q 144 1119 172 1145 q 116 1061 116 1093 q 134 1012 116 1036 q 189 975 151 989 q 222 970 203 970 z "},"±":{"ha":819,"x_min":0,"x_max":717,"o":"m 593 92 q 532 94 574 92 q 333 98 452 98 l 222 97 q 94 113 121 97 q 68 138 77 123 q 60 170 60 154 q 77 214 60 193 q 99 229 86 223 q 137 238 112 235 q 208 244 162 241 q 401 252 275 248 q 590 255 527 255 q 622 254 616 255 q 654 235 637 251 q 684 174 684 206 q 671 131 684 151 q 637 100 659 111 l 635 99 q 626 95 631 97 q 614 93 621 94 q 593 92 607 92 m 361 323 q 311 337 335 323 q 271 380 287 351 q 263 405 265 391 q 260 445 260 419 q 259 516 259 471 q 258 628 259 561 l 163 629 q 81 632 106 629 q 40 642 56 634 q 10 668 20 652 q 0 702 0 684 q 12 741 0 722 q 59 768 24 760 q 178 782 94 777 l 214 785 q 257 788 256 787 q 262 880 258 789 q 271 976 266 948 q 290 1016 277 1003 q 347 1039 315 1039 q 387 1028 369 1039 q 414 995 406 1017 q 427 927 423 974 q 436 792 431 880 l 536 791 q 621 789 595 791 q 664 779 647 787 q 703 744 690 765 q 717 699 717 723 q 688 635 717 666 q 660 614 674 621 q 624 608 646 608 q 536 616 603 608 q 448 626 511 620 l 449 605 q 460 481 454 538 q 465 430 465 449 q 463 407 465 416 q 425 346 454 369 q 361 323 396 323 z "},"²":{"ha":439,"x_min":0,"x_max":337,"o":"m 144 860 q 58 861 75 860 q 35 866 41 863 q 10 890 20 873 q 0 921 0 906 q 12 956 0 937 q 58 1012 23 975 q 116 1080 90 1047 q 148 1130 133 1101 q 163 1169 163 1158 q 160 1175 163 1175 q 138 1164 156 1175 q 98 1131 121 1153 q 73 1108 81 1113 q 54 1103 64 1103 q 22 1116 35 1103 q 6 1149 8 1129 q 45 1223 6 1181 q 116 1275 81 1257 q 184 1293 152 1293 q 258 1259 228 1293 q 278 1226 272 1243 q 283 1180 283 1208 q 219 1011 283 1098 l 199 987 l 230 987 q 311 967 286 987 q 337 920 337 947 q 305 869 337 890 q 287 863 298 865 q 248 861 275 861 q 144 860 221 860 z "},"³":{"ha":431,"x_min":0,"x_max":329,"o":"m 71 811 q 44 814 53 811 q 20 836 30 821 q 9 865 9 852 q 60 920 9 910 q 126 934 94 924 q 182 953 159 943 q 205 968 205 963 q 170 981 201 981 q 117 974 148 981 q 73 968 90 968 q 33 985 46 968 q 20 1021 20 1002 q 26 1047 20 1034 q 75 1095 33 1059 q 126 1142 104 1118 q 147 1174 147 1165 q 146 1176 147 1176 q 100 1164 140 1176 q 41 1147 50 1147 q 13 1162 25 1147 q 0 1196 0 1176 q 55 1251 0 1224 q 163 1278 109 1278 q 235 1254 210 1277 q 260 1189 260 1230 q 250 1137 260 1160 q 219 1084 239 1114 l 224 1082 q 282 1048 260 1065 q 318 1003 304 1032 q 329 966 329 981 q 292 883 327 916 q 174 826 257 850 q 121 815 150 819 q 71 811 93 811 z "},"´":{"ha":467,"x_min":0,"x_max":365,"o":"m 74 866 q 35 876 52 866 q 11 905 21 886 q 0 935 0 924 q 6 963 0 945 q 24 997 12 981 q 61 1047 31 1008 q 130 1135 91 1086 q 201 1225 168 1184 q 282 1267 231 1267 q 344 1239 323 1265 q 365 1180 365 1214 q 358 1146 365 1163 q 271 1045 352 1133 q 185 951 227 998 q 108 873 127 884 q 74 866 92 866 z "},"µ":{"ha":847,"x_min":0,"x_max":745,"o":"m 110 -41 q 89 -39 99 -41 q 49 -16 69 -34 q 20 22 28 2 q 0 500 0 78 q 61 1051 0 998 q 115 1073 87 1073 q 157 1060 138 1073 q 187 1023 177 1047 q 195 973 192 1013 q 199 842 197 933 l 209 443 l 226 431 q 349 383 291 383 q 452 436 407 383 q 526 575 497 489 l 543 625 q 540 725 541 690 q 539 788 539 760 q 538 863 538 816 q 543 979 538 939 q 558 1036 548 1019 q 629 1075 582 1075 q 677 1060 662 1075 q 711 1014 693 1044 q 732 650 719 828 q 742 490 738 574 q 745 362 745 406 q 739 284 745 307 q 714 244 732 261 q 643 214 679 214 q 627 216 634 214 q 578 243 599 224 q 553 287 558 263 q 548 300 550 300 q 516 276 546 300 q 430 228 469 239 q 329 216 391 217 q 271 224 300 216 q 231 235 241 231 l 224 237 q 220 230 222 237 q 216 143 217 218 q 208 29 213 49 q 170 -22 198 -3 q 110 -41 142 -41 z "},"¶":{"ha":1340,"x_min":0,"x_max":1238,"o":"m 447 -33 q 402 -21 422 -33 q 369 8 382 -9 q 356 31 360 18 q 349 70 351 43 q 347 155 347 97 q 349 315 349 233 q 350 411 349 354 l 352 576 q 292 583 321 578 q 242 595 271 586 q 8 823 52 649 q 0 888 0 856 q 33 1021 0 956 q 129 1138 66 1085 q 320 1238 212 1211 q 637 1265 428 1265 q 999 1251 846 1265 q 1198 1213 1152 1236 q 1228 1185 1218 1202 q 1238 1150 1238 1168 q 1229 1118 1238 1133 q 1202 1093 1220 1103 q 1183 1087 1194 1089 q 1152 1083 1173 1084 q 1094 1079 1131 1081 q 1013 1074 1017 1076 q 1012 1056 1012 1073 q 1028 443 1012 989 q 1030 339 1030 361 l 1031 186 q 1029 92 1031 109 q 1021 60 1027 75 q 930 -4 992 -4 q 839 60 870 -4 l 829 83 l 829 511 l 831 592 q 835 906 835 829 q 827 1063 835 1063 q 712 1055 808 1063 l 578 1047 q 554 1046 559 1047 q 548 1042 548 1046 l 549 1029 q 553 928 551 1013 q 559 565 559 749 q 555 229 559 389 q 547 45 552 69 q 508 -12 536 9 q 447 -33 479 -33 z "},"·":{"ha":338,"x_min":0,"x_max":236,"o":"m 119 392 q 35 431 71 392 q 0 525 0 470 q 16 595 0 559 q 60 640 31 625 q 121 656 89 655 q 205 617 174 653 q 236 532 236 581 q 222 469 236 502 q 181 414 208 437 q 119 392 155 392 z "},"∙":{"ha":338,"x_min":0,"x_max":236,"o":"m 119 392 q 35 431 71 392 q 0 525 0 470 q 16 595 0 559 q 60 640 31 625 q 121 656 89 655 q 205 617 174 653 q 236 532 236 581 q 222 469 236 502 q 181 414 208 437 q 119 392 155 392 z "},"¸":{"ha":353,"x_min":0,"x_max":251,"o":"m 64 -168 q 19 -149 37 -168 q 0 -104 0 -129 q 14 -65 0 -83 q 52 -42 28 -47 q 78 -30 62 -39 q 106 -9 94 -20 q 118 7 118 2 q 84 15 118 13 q 37 26 54 17 q 11 55 20 35 q 5 70 7 63 q 3 90 3 77 q 5 144 3 107 q 16 219 9 197 q 38 250 22 241 q 64 257 49 257 q 108 237 94 256 q 123 172 123 218 l 123 140 q 172 127 154 134 q 208 100 189 119 q 251 3 251 55 q 238 -50 251 -24 q 158 -129 214 -89 q 64 -168 102 -168 z "},"¹":{"ha":363,"x_min":0,"x_max":262,"o":"m 201 858 l 195 858 q 170 861 176 858 q 147 881 158 867 q 131 911 136 896 q 127 947 129 920 q 122 1042 122 999 l 122 1053 q 117 1099 122 1099 q 98 1087 112 1099 q 50 1066 73 1066 q 15 1081 31 1066 q 0 1118 0 1097 q 15 1158 0 1137 q 59 1209 31 1179 q 116 1264 88 1240 q 153 1293 143 1289 q 172 1297 163 1297 q 213 1281 195 1297 q 239 1239 232 1266 q 258 1044 246 1213 q 262 946 262 978 q 201 858 262 864 z "},"º":{"ha":434,"x_min":0,"x_max":332,"o":"m 172 853 q 133 856 153 853 q 101 865 113 859 q 52 904 75 878 q 14 967 28 930 q 0 1052 0 1005 q 5 1117 0 1084 q 21 1171 11 1149 q 84 1251 46 1223 q 167 1279 123 1279 q 250 1249 212 1279 q 313 1158 288 1219 q 332 1066 332 1112 q 301 943 332 1002 q 210 858 270 884 q 172 853 195 853 m 168 976 q 196 993 181 976 q 213 1027 207 1006 q 218 1072 218 1048 q 214 1113 218 1093 q 199 1144 209 1133 q 184 1159 190 1156 q 175 1162 179 1162 q 138 1132 152 1162 q 124 1065 124 1101 q 138 1003 124 1030 q 168 976 152 976 z "},"»":{"ha":989,"x_min":0,"x_max":888,"o":"m 502 154 q 439 181 466 154 q 412 243 412 208 q 419 278 412 260 q 431 299 423 290 q 453 321 438 309 q 497 356 469 334 q 545 393 519 372 q 590 430 571 414 q 630 470 608 447 q 669 511 652 492 q 686 534 686 530 q 554 681 686 539 q 454 798 479 761 q 429 857 429 835 q 448 903 429 884 q 493 922 467 922 q 513 918 504 922 q 593 853 532 912 q 703 751 636 812 q 876 585 862 606 q 888 538 888 563 q 876 491 888 514 q 823 420 863 468 q 739 329 783 372 q 669 264 710 300 q 592 199 628 228 q 541 163 555 170 q 502 154 522 154 m 93 193 q 34 213 60 193 q 1 264 8 232 q 0 275 0 269 q 6 310 0 291 q 21 342 12 329 q 71 385 35 361 q 205 484 119 418 q 294 554 294 551 q 240 630 292 558 q 157 745 187 702 q 96 842 102 822 q 92 862 92 853 q 113 911 92 890 q 161 932 133 932 q 191 925 177 932 q 227 897 205 919 q 286 830 248 875 l 411 685 q 471 616 450 642 q 498 574 491 590 q 505 539 505 557 q 487 485 505 508 q 414 418 470 461 q 199 249 263 297 q 124 198 136 200 q 93 193 109 193 z "},"":{"ha":1761,"x_min":0,"x_max":1761,"o":"m 1089 406 q 1018 427 1044 418 q 911 514 948 452 q 893 578 893 545 q 905 624 893 602 q 932 655 918 646 q 964 664 947 664 q 1029 637 995 664 q 1063 680 1037 662 q 1119 697 1090 697 q 1164 682 1143 697 q 1188 645 1181 667 q 1196 601 1196 623 q 1155 486 1196 554 q 1089 406 1124 437 m 292 -32 q 126 33 203 -32 q 18 211 49 98 q 0 375 0 288 q 23 565 0 473 q 58 663 35 609 q 103 755 80 718 q 236 900 159 849 q 397 950 313 950 q 508 920 454 950 q 602 829 562 890 l 621 799 l 622 807 q 636 897 628 867 q 669 938 645 926 q 700 946 685 946 q 753 915 730 946 q 759 905 757 911 q 771 292 769 874 l 772 46 q 686 -31 755 -24 q 651 -22 668 -31 q 601 48 612 -3 q 587 211 590 99 l 587 218 l 574 195 q 499 81 543 135 q 419 3 455 28 q 292 -32 362 -32 m 313 156 q 350 170 330 156 q 398 216 370 183 q 450 283 427 248 q 543 477 488 340 q 564 535 557 514 q 571 574 571 557 q 559 635 571 600 q 458 789 523 751 q 422 798 442 798 q 368 784 396 798 q 250 639 296 746 q 204 404 204 532 q 262 184 204 235 q 313 156 288 156 m 1370 562 l 1367 564 q 1265 662 1313 611 q 1189 780 1218 713 q 1160 919 1160 846 q 1181 1025 1160 975 q 1251 1107 1202 1076 q 1334 1135 1296 1135 q 1394 1118 1367 1135 q 1442 1074 1421 1101 q 1477 1015 1463 1046 q 1530 1048 1498 1036 q 1596 1059 1561 1059 q 1687 1037 1644 1059 q 1750 970 1730 1015 q 1761 909 1761 941 q 1747 829 1761 868 q 1709 762 1732 791 q 1557 640 1655 699 q 1370 562 1459 582 m 1306 210 q 1252 243 1270 231 q 1211 283 1228 260 q 1183 366 1183 322 q 1206 425 1183 399 q 1248 446 1227 446 q 1308 408 1280 446 q 1335 431 1317 422 q 1373 439 1353 439 q 1425 415 1407 439 q 1438 370 1438 394 q 1428 326 1438 347 q 1376 260 1411 294 q 1306 210 1341 227 z "},"":{"ha":791,"x_min":0,"x_max":602,"o":"m 116 -81 q 95 -79 107 -81 q 58 -64 82 -77 q 3 15 14 -37 q 0 116 0 32 q 14 770 0 317 q 28 1107 23 1029 q 45 1222 34 1204 q 75 1251 56 1241 q 114 1261 94 1261 q 164 1241 144 1261 q 192 1180 184 1221 q 207 947 198 1139 q 222 515 215 755 q 232 88 229 275 q 229 18 232 41 q 219 -19 227 -6 q 199 -45 212 -32 q 116 -81 161 -81 m 487 -74 q 466 -72 479 -74 q 428 -56 452 -69 q 372 22 383 -30 q 369 119 369 39 q 382 665 369 278 q 395 1002 391 925 q 413 1118 401 1099 q 443 1147 424 1137 q 481 1157 461 1157 q 531 1137 511 1157 q 559 1076 552 1117 q 575 870 566 1034 q 591 494 584 706 q 602 96 599 281 q 599 25 602 49 q 589 -11 596 2 q 568 -37 582 -24 q 487 -74 530 -74 z "}}}
